<?xml version="1.0" standalone="no"?>
<!DOCTYPE svg PUBLIC "-//W3C//DTD SVG 20010904//EN"
 "http://www.w3.org/TR/2001/REC-SVG-20010904/DTD/svg10.dtd">
<svg version="1.0" xmlns="http://www.w3.org/2000/svg"
 width="300.000000pt" height="188.000000pt" viewBox="0 0 300.000000 188.000000"
 preserveAspectRatio="xMidYMid meet">
<metadata>
Created by potrace 1.10, written by Peter Selinger 2001-2011
</metadata>
<g transform="translate(0.000000,188.000000) scale(0.100000,-0.100000)"
fill="#000000" stroke="none">
<path d="M1460 1133 c-88 -61 -145 -151 -156 -246 -6 -53 4 -124 26 -182 10
-26 12 -27 26 -13 14 14 14 19 -2 49 -14 25 -18 57 -19 124 0 79 3 96 27 141
15 28 42 63 60 78 18 14 38 30 44 36 7 5 15 6 18 3 3 -4 6 1 6 10 0 21 0 21
-30 0z"/>
<path d="M1678 1106 c-47 -14 -78 -40 -78 -65 0 -19 1 -19 52 0 58 21 63 25
73 57 7 24 6 25 -47 8z"/>
<path d="M1493 1054 c-20 -17 -22 -30 -25 -137 -2 -64 -1 -117 2 -117 3 0 16
7 28 16 15 10 22 25 22 49 0 29 4 35 34 45 19 6 37 16 40 23 2 7 5 -14 5 -45
1 -62 5 -66 39 -42 20 13 22 24 22 95 0 59 -3 79 -13 79 -18 0 -47 -32 -47
-52 0 -10 -12 -19 -31 -23 -17 -4 -33 -14 -37 -23 -4 -10 -9 21 -12 67 l-5 83
-22 -18z"/>
<path d="M1791 1057 c-9 -12 -9 -25 0 -62 16 -62 7 -161 -20 -213 -27 -52 -84
-110 -127 -128 -19 -8 -34 -18 -34 -23 0 -16 91 40 130 79 64 64 85 121 85
230 0 102 -12 143 -34 117z"/>
<path d="M1703 975 c-33 -14 -45 -35 -19 -35 16 0 63 36 56 43 -3 3 -20 -1
-37 -8z"/>
<path d="M1377 846 c-7 -19 4 -36 24 -36 10 0 19 -4 19 -8 0 -5 6 -16 13 -26
12 -16 14 -16 14 -2 0 9 -5 16 -10 16 -6 0 -8 3 -4 6 3 3 -3 14 -14 25 -11 11
-18 23 -15 28 3 4 -1 8 -9 8 -8 0 -16 -5 -18 -11z"/>
<path d="M1552 854 c3 -3 -9 -31 -28 -61 -39 -66 -40 -69 -16 -78 13 -5 14 -3
5 6 -9 9 -8 19 4 45 14 27 19 31 35 23 17 -9 17 -12 3 -38 -8 -16 -11 -31 -8
-35 4 -3 0 -6 -7 -6 -7 0 -11 -3 -7 -6 3 -4 -1 -13 -9 -21 -12 -13 -17 -13
-32 -1 -9 7 -21 18 -25 23 -4 6 -7 1 -5 -10 2 -11 -4 -21 -13 -23 -11 -2 -23
13 -39 50 -13 29 -23 59 -23 66 0 6 -3 10 -5 7 -3 -3 -12 1 -20 8 -13 10 -13
8 0 -18 9 -16 19 -44 22 -61 4 -18 23 -46 42 -63 18 -17 34 -36 34 -41 0 -19
21 -10 55 23 20 20 47 64 64 108 19 47 24 66 13 52 -15 -20 -19 -20 -36 -7
-19 14 -19 14 2 14 17 0 22 6 22 25 0 17 -6 25 -17 25 -9 0 -14 -3 -11 -6z
m-57 -184 c3 -6 -1 -13 -10 -16 -19 -8 -30 0 -20 15 8 14 22 14 30 1z"/>
<path d="M1430 740 c-8 -5 -10 -10 -5 -10 6 0 17 5 25 10 8 5 11 10 5 10 -5 0
-17 -5 -25 -10z"/>
<path d="M1480 706 c0 -2 7 -7 16 -10 8 -3 12 -2 9 4 -6 10 -25 14 -25 6z"/>
<path d="M1195 621 c3 -7 -2 -23 -12 -33 -17 -19 -17 -20 7 -17 14 2 24 6 22
9 -2 3 1 16 6 30 8 22 7 26 -9 26 -13 0 -18 -5 -14 -15z"/>
<path d="M1736 631 c-14 -5 -16 -10 -8 -15 7 -4 12 -15 12 -25 0 -10 9 -21 20
-24 23 -6 25 1 5 26 -7 11 -11 25 -8 33 6 16 6 16 -21 5z"/>
<path d="M1250 600 c-11 -11 -20 -26 -20 -34 0 -8 -3 -21 -6 -29 -4 -11 7 -18
46 -26 79 -17 100 -15 101 12 0 21 1 21 9 2 9 -20 9 -20 10 0 1 20 1 20 10 0
8 -19 9 -19 9 3 1 17 -5 22 -23 22 -13 0 -31 3 -40 6 -11 4 -16 0 -17 -12 0
-15 -2 -15 -6 -4 -4 8 -16 23 -27 33 -21 18 -21 18 -27 -10 -3 -15 -4 -30 -2
-33 7 -8 22 24 16 34 -3 5 -1 6 6 2 6 -4 10 -15 9 -24 -4 -24 39 -29 45 -5 4
17 4 17 12 0 11 -27 0 -31 -53 -21 -45 9 -47 10 -47 44 0 30 3 35 23 33 14 -2
22 3 22 12 0 21 -26 19 -50 -5z"/>
<path d="M1647 600 c-4 -15 -14 -20 -39 -21 -32 -2 -32 -2 -4 -6 16 -3 33 0
39 6 6 6 19 11 29 11 22 0 36 -47 18 -63 -10 -10 -11 -6 -8 15 5 25 3 27 -21
23 -14 -2 -32 -13 -40 -22 -13 -17 -13 -17 -8 0 4 9 2 17 -3 17 -6 0 -10 -9
-10 -20 0 -15 7 -20 26 -20 19 0 25 4 20 15 -5 15 5 20 17 8 13 -12 -15 -33
-44 -33 -25 0 -29 4 -29 26 0 21 -3 25 -17 19 -23 -9 -31 -9 -65 0 -25 6 -28
5 -28 -19 0 -14 4 -26 9 -26 6 0 8 9 6 20 -2 11 0 20 6 20 5 0 9 -9 9 -20 0
-23 25 -27 34 -5 7 19 36 20 36 1 0 -23 17 -28 74 -21 75 10 81 15 66 59 -17
52 -63 74 -73 36z"/>
<path d="M1328 573 c6 -2 18 -2 25 0 6 3 1 5 -13 5 -14 0 -19 -2 -12 -5z"/>
<path d="M1413 563 c9 -2 17 -9 17 -14 0 -6 5 -7 10 -4 14 9 13 -8 -2 -23 -9
-9 -9 -12 4 -12 20 0 18 37 -2 50 -8 5 -22 9 -30 9 -11 -1 -10 -3 3 -6z"/>
<path d="M1550 520 c0 -5 5 -10 11 -10 5 0 7 5 4 10 -3 6 -8 10 -11 10 -2 0
-4 -4 -4 -10z"/>
</g>
</svg>
