<?xml version="1.0" encoding="UTF-8" standalone="no"?>
<svg
   xmlns:dc="http://purl.org/dc/elements/1.1/"
   xmlns:cc="http://creativecommons.org/ns#"
   xmlns:rdf="http://www.w3.org/1999/02/22-rdf-syntax-ns#"
   xmlns:svg="http://www.w3.org/2000/svg"
   xmlns="http://www.w3.org/2000/svg"
   viewBox="0 0 816 1056"
   height="1056"
   width="816"
   xml:space="preserve"
   id="svg2"
   version="1.1"><metadata
     id="metadata8"><rdf:RDF><cc:Work
         rdf:about=""><dc:format>image/svg+xml</dc:format><dc:type
           rdf:resource="http://purl.org/dc/dcmitype/StillImage" /></cc:Work></rdf:RDF></metadata><defs
     id="defs6"><clipPath
       id="clipPath18"
       clipPathUnits="userSpaceOnUse"><path
         id="path16"
         d="M 0,792 H 612 V 0 H 0 Z" /></clipPath><linearGradient
       id="linearGradient512"
       spreadMethod="pad"
       gradientTransform="matrix(-75.11068,-0.4287194,-0.5575627,97.684204,230.50989,262.06454)"
       gradientUnits="userSpaceOnUse"
       y2="0"
       x2="1"
       y1="0"
       x1="0"><stop
         id="stop492"
         offset="0"
         style="stop-opacity:1;stop-color:#c28846" /><stop
         id="stop494"
         offset="0.09326614"
         style="stop-opacity:1;stop-color:#db9f48" /><stop
         id="stop496"
         offset="0.0947556"
         style="stop-opacity:1;stop-color:#db9f48" /><stop
         id="stop498"
         offset="0.28004329"
         style="stop-opacity:1;stop-color:#f4bc4b" /><stop
         id="stop500"
         offset="0.284946"
         style="stop-opacity:1;stop-color:#f4bc4b" /><stop
         id="stop502"
         offset="0.635598"
         style="stop-opacity:1;stop-color:#f7dc84" /><stop
         id="stop504"
         offset="0.83637383"
         style="stop-opacity:1;stop-color:#e7aa49" /><stop
         id="stop506"
         offset="0.903963"
         style="stop-opacity:1;stop-color:#e7aa49" /><stop
         id="stop508"
         offset="0.97062388"
         style="stop-opacity:1;stop-color:#e7aa49" /><stop
         id="stop510"
         offset="1"
         style="stop-opacity:1;stop-color:#e7aa49" /></linearGradient><linearGradient
       id="linearGradient540"
       spreadMethod="pad"
       gradientTransform="matrix(-35.291267,-0.2014368,-0.2619747,45.897594,230.55118,254.83038)"
       gradientUnits="userSpaceOnUse"
       y2="0"
       x2="1"
       y1="0"
       x1="0"><stop
         id="stop528"
         offset="0"
         style="stop-opacity:1;stop-color:#7f5732" /><stop
         id="stop530"
         offset="0.28046694"
         style="stop-opacity:1;stop-color:#f4bc4b" /><stop
         id="stop532"
         offset="0.284946"
         style="stop-opacity:1;stop-color:#f4bc4b" /><stop
         id="stop534"
         offset="0.635598"
         style="stop-opacity:1;stop-color:#b27741" /><stop
         id="stop536"
         offset="0.90822339"
         style="stop-opacity:1;stop-color:#e7aa49" /><stop
         id="stop538"
         offset="1"
         style="stop-opacity:1;stop-color:#e7aa49" /></linearGradient><linearGradient
       id="linearGradient576"
       spreadMethod="pad"
       gradientTransform="matrix(74.917984,0.4276195,-0.5561323,97.433601,373.97708,262.88342)"
       gradientUnits="userSpaceOnUse"
       y2="0"
       x2="1"
       y1="0"
       x1="0"><stop
         id="stop556"
         offset="0"
         style="stop-opacity:1;stop-color:#c28846" /><stop
         id="stop558"
         offset="0.09326614"
         style="stop-opacity:1;stop-color:#db9f48" /><stop
         id="stop560"
         offset="0.0947556"
         style="stop-opacity:1;stop-color:#db9f48" /><stop
         id="stop562"
         offset="0.28004329"
         style="stop-opacity:1;stop-color:#f4bc4b" /><stop
         id="stop564"
         offset="0.284946"
         style="stop-opacity:1;stop-color:#f4bc4b" /><stop
         id="stop566"
         offset="0.635598"
         style="stop-opacity:1;stop-color:#f7dc84" /><stop
         id="stop568"
         offset="0.83637383"
         style="stop-opacity:1;stop-color:#e7aa49" /><stop
         id="stop570"
         offset="0.903963"
         style="stop-opacity:1;stop-color:#e7aa49" /><stop
         id="stop572"
         offset="0.97062388"
         style="stop-opacity:1;stop-color:#e7aa49" /><stop
         id="stop574"
         offset="1"
         style="stop-opacity:1;stop-color:#e7aa49" /></linearGradient><linearGradient
       id="linearGradient604"
       spreadMethod="pad"
       gradientTransform="matrix(35.034531,0.1999714,-0.2600689,45.563698,374.01837,255.64928)"
       gradientUnits="userSpaceOnUse"
       y2="0"
       x2="1"
       y1="0"
       x1="0"><stop
         id="stop592"
         offset="0"
         style="stop-opacity:1;stop-color:#7f5732" /><stop
         id="stop594"
         offset="0.28046694"
         style="stop-opacity:1;stop-color:#f4bc4b" /><stop
         id="stop596"
         offset="0.284946"
         style="stop-opacity:1;stop-color:#f4bc4b" /><stop
         id="stop598"
         offset="0.635598"
         style="stop-opacity:1;stop-color:#b27741" /><stop
         id="stop600"
         offset="0.90822339"
         style="stop-opacity:1;stop-color:#e7aa49" /><stop
         id="stop602"
         offset="1"
         style="stop-opacity:1;stop-color:#e7aa49" /></linearGradient><linearGradient
       id="linearGradient640"
       spreadMethod="pad"
       gradientTransform="matrix(-212.96851,-1.2155893,-1.580911,276.97339,408.80902,243.64377)"
       gradientUnits="userSpaceOnUse"
       y2="0"
       x2="1"
       y1="0"
       x1="0"><stop
         id="stop620"
         offset="0"
         style="stop-opacity:1;stop-color:#c28846" /><stop
         id="stop622"
         offset="0.09326614"
         style="stop-opacity:1;stop-color:#db9f48" /><stop
         id="stop624"
         offset="0.0947556"
         style="stop-opacity:1;stop-color:#db9f48" /><stop
         id="stop626"
         offset="0.28004329"
         style="stop-opacity:1;stop-color:#f4bc4b" /><stop
         id="stop628"
         offset="0.284946"
         style="stop-opacity:1;stop-color:#f4bc4b" /><stop
         id="stop630"
         offset="0.635598"
         style="stop-opacity:1;stop-color:#f7dc84" /><stop
         id="stop632"
         offset="0.83637383"
         style="stop-opacity:1;stop-color:#e7aa49" /><stop
         id="stop634"
         offset="0.903963"
         style="stop-opacity:1;stop-color:#e7aa49" /><stop
         id="stop636"
         offset="0.97062388"
         style="stop-opacity:1;stop-color:#e7aa49" /><stop
         id="stop638"
         offset="1"
         style="stop-opacity:1;stop-color:#e7aa49" /></linearGradient><linearGradient
       id="linearGradient676"
       spreadMethod="pad"
       gradientTransform="matrix(-212.97031,-1.2155997,-1.5809244,276.97574,408.8063,244.43713)"
       gradientUnits="userSpaceOnUse"
       y2="0"
       x2="1"
       y1="0"
       x1="0"><stop
         id="stop656"
         offset="0"
         style="stop-opacity:1;stop-color:#c28846" /><stop
         id="stop658"
         offset="0.09326614"
         style="stop-opacity:1;stop-color:#db9f48" /><stop
         id="stop660"
         offset="0.0947556"
         style="stop-opacity:1;stop-color:#db9f48" /><stop
         id="stop662"
         offset="0.28004329"
         style="stop-opacity:1;stop-color:#f4bc4b" /><stop
         id="stop664"
         offset="0.284946"
         style="stop-opacity:1;stop-color:#f4bc4b" /><stop
         id="stop666"
         offset="0.635598"
         style="stop-opacity:1;stop-color:#f7dc84" /><stop
         id="stop668"
         offset="0.83637383"
         style="stop-opacity:1;stop-color:#e7aa49" /><stop
         id="stop670"
         offset="0.903963"
         style="stop-opacity:1;stop-color:#e7aa49" /><stop
         id="stop672"
         offset="0.97062388"
         style="stop-opacity:1;stop-color:#e7aa49" /><stop
         id="stop674"
         offset="1"
         style="stop-opacity:1;stop-color:#e7aa49" /></linearGradient><linearGradient
       id="linearGradient704"
       spreadMethod="pad"
       gradientTransform="matrix(-213.19527,-1.2168837,-1.5825943,277.26831,408.85095,251.57291)"
       gradientUnits="userSpaceOnUse"
       y2="0"
       x2="1"
       y1="0"
       x1="0"><stop
         id="stop692"
         offset="0"
         style="stop-opacity:1;stop-color:#7f5732" /><stop
         id="stop694"
         offset="0.28046694"
         style="stop-opacity:1;stop-color:#f4bc4b" /><stop
         id="stop696"
         offset="0.284946"
         style="stop-opacity:1;stop-color:#f4bc4b" /><stop
         id="stop698"
         offset="0.635598"
         style="stop-opacity:1;stop-color:#b27741" /><stop
         id="stop700"
         offset="0.90822339"
         style="stop-opacity:1;stop-color:#e7aa49" /><stop
         id="stop702"
         offset="1"
         style="stop-opacity:1;stop-color:#e7aa49" /></linearGradient><linearGradient
       id="linearGradient732"
       spreadMethod="pad"
       gradientTransform="matrix(-213.01407,-1.2158493,-1.5812492,277.03265,408.87952,231.60747)"
       gradientUnits="userSpaceOnUse"
       y2="0"
       x2="1"
       y1="0"
       x1="0"><stop
         id="stop720"
         offset="0"
         style="stop-opacity:1;stop-color:#c2891e" /><stop
         id="stop722"
         offset="0.02164663"
         style="stop-opacity:1;stop-color:#c2891e" /><stop
         id="stop724"
         offset="0.575269"
         style="stop-opacity:1;stop-color:#fae4a1" /><stop
         id="stop726"
         offset="0.903963"
         style="stop-opacity:1;stop-color:#e6924c" /><stop
         id="stop728"
         offset="0.97062388"
         style="stop-opacity:1;stop-color:#e6924c" /><stop
         id="stop730"
         offset="1"
         style="stop-opacity:1;stop-color:#e6924c" /></linearGradient><clipPath
       id="clipPath742"
       clipPathUnits="userSpaceOnUse"><path
         id="path740"
         d="M 0,792 H 612 V 0 H 0 Z" /></clipPath></defs><g
     transform="matrix(1.3333333,0,0,-1.3333333,0,1056)"
     id="g10"><g
       id="g12"><g
         clip-path="url(#clipPath18)"
         id="g14"><g
           transform="translate(366.5724,289.7187)"
           id="g20"><path
             id="path22"
             style="fill:#99cf3d;fill-opacity:1;fill-rule:nonzero;stroke:none"
             d="m 0,0 c 17.191,9.767 31.267,22.893 42.24,39.325 11.752,17.597 18.577,36.991 20.911,57.993 2.608,23.466 -0.894,46.044 -10.067,67.74 -1.239,2.931 -0.315,3.887 2.023,5.972 3.305,2.949 5.578,4.209 7.937,6.762 2.264,2.45 3.308,1.74 4.404,-0.96 4.581,-11.294 7.923,-22.977 9.545,-35.01 C 80.745,113.995 77.128,87.131 64.882,61.691 52.493,35.957 34.125,15.735 8.926,1.976 6.368,0.579 3.652,-0.529 1.01,-1.771 -66.963,-30.211 -0.849,-1.266 0,0" /></g><g
           transform="translate(285.4355,474.8073)"
           id="g24"><path
             id="path26"
             style="fill:#aed526;fill-opacity:1;fill-rule:nonzero;stroke:none"
             d="m 0,0 c -14.883,-9.974 -31.474,-23.002 -41.635,-37.958 -13.397,-19.721 -20.655,-41.411 -22.154,-65.215 -1.475,-23.424 2.815,-45.648 12.778,-66.797 1.423,-3.021 0.563,-4.128 -1.552,-6.668 -2.475,-2.97 -4.05,-4.165 -7.322,-6.73 -3.314,-2.596 -3.363,-1.839 -4.598,0.798 -8.064,17.217 -12.607,35.319 -13.346,54.302 -1.638,42.06 12.684,77.812 42.926,107.096 8.774,8.496 23.284,17.412 34.123,23.014 C 23.565,12.907 20.982,12.307 0,0" /></g><g
           transform="translate(373.9375,410.8691)"
           id="g28"><path
             id="path30"
             style="fill:#a78e62;fill-opacity:1;fill-rule:nonzero;stroke:none"
             d="m 0,0 c 0,-9.316 0.081,-18.633 -0.023,-27.947 -0.101,-9.065 -5.647,-16.268 -14.255,-18.832 -10.557,-3.145 -10.54,-3.145 -10.529,7.941 0.016,16.135 0.002,32.27 0.005,48.404 0.003,10.854 5.121,17.931 15.334,21.215 9.621,3.094 9.586,3.094 9.518,-6.826 C -0.005,15.97 0.039,7.985 0.039,0 0.026,0 0.013,0 0,0" /></g><g
           transform="translate(315.598,463.044)"
           id="g32"><path
             id="path34"
             style="fill:#a78d62;fill-opacity:1;fill-rule:nonzero;stroke:none"
             d="M 0,0 C 0.09,-2.047 0.197,-3.347 0.197,-4.647 0.183,-31.917 0.18,-59.186 0.124,-86.455 c -0.032,-15.824 -6.846,-24.722 -22.023,-29.133 -1.955,-0.568 -2.871,-0.278 -2.805,1.86 0.005,0.166 -0.01,0.332 -0.01,0.499 0.037,29.782 -0.155,59.568 0.259,89.345 0.118,8.525 5.029,14.949 12.858,18.731 C -8.029,-3.429 -4.354,-1.925 0,0" /></g><g
           transform="translate(403.9663,482.6328)"
           id="g36"><path
             id="path38"
             style="fill:#a2d12b;fill-opacity:1;fill-rule:nonzero;stroke:none"
             d="m 0,0 c -2.251,-15.42 -6.529,-25.413 -24.28,-29.967 -9.634,-2.471 -19.085,-5.656 -28.611,-8.546 -2.502,-0.759 -3.903,-1.188 -3.383,2.699 1.633,12.215 5.615,23.007 18.106,27.545 11.364,4.13 23.162,7.069 34.781,10.49 C -1.089,2.898 0.799,2.813 0,0" /></g><g
           transform="translate(319.6085,392.1661)"
           id="g40"><path
             id="path42"
             style="fill:#a78e62;fill-opacity:1;fill-rule:nonzero;stroke:none"
             d="m 0,0 c -3.05,-0.523 -3.534,-0.58 -3.029,1.91 1.468,7.238 3.946,13.362 11.877,15.458 5.253,1.389 9.061,2.538 15.381,4.456 3.224,0.978 4.161,1.419 2.857,-2.569 C 24.57,11.56 24.831,6.439 13.609,4.005 8.264,2.312 3.759,1.123 0,0" /></g><g
           transform="translate(380.5424,406.3156)"
           id="g44"><path
             id="path46"
             style="fill:#a2d12d;fill-opacity:1;fill-rule:nonzero;stroke:none"
             d="m 0,0 c -2.727,-0.582 -3.526,0.051 -3.308,1.875 0.781,6.569 3.435,11.844 10.149,14.045 5.523,1.81 11.134,3.348 16.682,5.081 1.484,0.464 2.82,0.758 2.611,-1.394 C 25.582,13.934 23.843,8.662 18.444,5.89 12.359,2.765 5.448,1.948 0,0" /></g><g
           transform="translate(274.5792,322.3144)"
           id="g48"><path
             id="path50"
             style="fill:#f7c416;fill-opacity:1;fill-rule:nonzero;stroke:none"
             d="m 0,0 c -1.503,-0.588 -2.205,-2.337 -1.565,-3.908 0.64,-1.57 2.379,-2.365 3.882,-1.778 1.506,0.589 2.205,2.338 1.565,3.908 C 3.242,-0.207 1.505,0.589 0,0" /></g><g
           transform="translate(277.3601,315.4912)"
           id="g52"><path
             id="path54"
             style="fill:#f7c416;fill-opacity:1;fill-rule:nonzero;stroke:none"
             d="m 0,0 c -1.503,-0.588 -2.205,-2.337 -1.565,-3.908 0.64,-1.57 2.379,-2.365 3.882,-1.777 1.505,0.589 2.205,2.337 1.565,3.907 C 3.242,-0.207 1.505,0.589 0,0" /></g><g
           transform="translate(271.7986,329.1369)"
           id="g56"><path
             id="path58"
             style="fill:#f7c416;fill-opacity:1;fill-rule:nonzero;stroke:none"
             d="m 0,0 c -1.503,-0.588 -2.205,-2.338 -1.565,-3.906 0.64,-1.571 2.379,-2.367 3.882,-1.779 1.505,0.589 2.204,2.338 1.564,3.908 C 3.242,-0.208 1.505,0.589 0,0" /></g><g
           transform="translate(280.141,308.668)"
           id="g60"><path
             id="path62"
             style="fill:#f7c416;fill-opacity:1;fill-rule:nonzero;stroke:none"
             d="m 0,0 c -1.503,-0.588 -2.205,-2.337 -1.565,-3.908 0.64,-1.571 2.379,-2.366 3.882,-1.778 1.506,0.588 2.205,2.337 1.565,3.908 C 3.242,-0.207 1.505,0.589 0,0" /></g><g
           transform="translate(266.3241,343.5065)"
           id="g64"><path
             id="path66"
             style="fill:#f7c416;fill-opacity:1;fill-rule:nonzero;stroke:none"
             d="m 0,0 c -1.349,-0.527 -1.976,-2.095 -1.402,-3.503 0.573,-1.407 2.13,-2.119 3.478,-1.591 1.348,0.526 1.975,2.092 1.402,3.499 C 2.904,-0.187 1.347,0.527 0,0" /></g><g
           transform="translate(264.0907,350.1559)"
           id="g68"><path
             id="path70"
             style="fill:#f7c416;fill-opacity:1;fill-rule:nonzero;stroke:none"
             d="m 0,0 c -1.152,-0.45 -1.687,-1.791 -1.197,-2.993 0.49,-1.202 1.821,-1.813 2.972,-1.363 1.152,0.451 1.69,1.792 1.199,2.994 C 2.485,-0.16 1.152,0.45 0,0" /></g><g
           transform="translate(263.1127,353.1959)"
           id="g72"><path
             id="path74"
             style="fill:#f7c416;fill-opacity:1;fill-rule:nonzero;stroke:none"
             d="M 0,0 C 1.044,0.408 1.53,1.624 1.086,2.715 0.641,3.806 -0.566,4.359 -1.61,3.95 -2.655,3.542 -3.141,2.327 -2.697,1.236 -2.252,0.145 -1.045,-0.409 0,0" /></g><g
           transform="translate(261.1553,333.9458)"
           id="g76"><path
             id="path78"
             style="fill:#f7c416;fill-opacity:1;fill-rule:nonzero;stroke:none"
             d="m 0,0 1.877,0.734 0.462,0.18 C 3.163,1.237 3.524,2.253 3.146,3.18 L 2.574,4.583 C 2.197,5.508 1.221,6.001 0.397,5.679 L -1.35,4.995 -1.942,4.764 C -2.762,4.444 -3.125,3.427 -2.748,2.502 L -2.176,1.099 C -1.798,0.173 -0.82,-0.321 0,0" /></g><g
           transform="translate(263.6161,321.9067)"
           id="g80"><path
             id="path82"
             style="fill:#f7c416;fill-opacity:1;fill-rule:nonzero;stroke:none"
             d="M 0,0 C 0.337,-0.064 0.695,-0.039 1.037,0.095 L 3.633,1.11 C 4.58,1.48 5.042,2.533 4.664,3.46 L 4.093,4.862 C 3.716,5.787 2.638,6.245 1.691,5.875 L -0.314,5.091 -0.905,4.86 C -1.247,4.726 -1.524,4.502 -1.723,4.228 -2.073,3.742 -2.172,3.098 -1.931,2.507 L -1.36,1.104 C -1.119,0.513 -0.594,0.114 0,0" /></g><g
           transform="translate(265.9567,316.1638)"
           id="g84"><path
             id="path86"
             style="fill:#f7c416;fill-opacity:1;fill-rule:nonzero;stroke:none"
             d="M 0,0 C 0.337,-0.064 0.695,-0.039 1.037,0.095 L 3.633,1.11 C 4.58,1.48 5.042,2.534 4.664,3.461 L 4.093,4.863 C 3.715,5.79 2.638,6.243 1.692,5.873 L -0.905,4.858 C -1.246,4.724 -1.524,4.501 -1.722,4.226 -2.073,3.743 -2.173,3.099 -1.932,2.507 L -1.36,1.105 C -1.119,0.514 -0.594,0.115 0,0" /></g><g
           transform="translate(262.9047,327.9727)"
           id="g88"><path
             id="path90"
             style="fill:#f7c416;fill-opacity:1;fill-rule:nonzero;stroke:none"
             d="m 0,0 2.005,0.784 0.462,0.181 c 0.888,0.347 1.296,1.38 0.918,2.308 L 2.814,4.674 C 2.436,5.601 1.412,6.079 0.525,5.732 L -1.352,4.998 -1.943,4.767 C -2.647,4.492 -3.05,3.775 -2.994,3.026 -2.98,2.836 -2.935,2.645 -2.859,2.456 L -2.288,1.055 C -2.211,0.868 -2.108,0.698 -1.985,0.551 -1.5,-0.03 -0.704,-0.275 0,0" /></g><g
           transform="translate(256.6212,351.1668)"
           id="g92"><path
             id="path94"
             style="fill:#f7c416;fill-opacity:1;fill-rule:nonzero;stroke:none"
             d="M 0,0 1.87,0.731 C 2.469,0.965 2.75,1.672 2.492,2.306 L 2.061,3.363 C 1.803,3.997 1.102,4.32 0.503,4.086 L -1.367,3.355 C -1.968,3.12 -2.248,2.413 -1.99,1.779 L -1.559,0.723 C -1.3,0.088 -0.601,-0.235 0,0" /></g><g
           transform="translate(256.2871,356.3195)"
           id="g96"><path
             id="path98"
             style="fill:#f7c416;fill-opacity:1;fill-rule:nonzero;stroke:none"
             d="m 0,0 1.542,0.603 c 0.437,0.171 0.612,0.802 0.379,1.373 l -0.407,1 C 1.28,3.549 0.711,3.886 0.273,3.715 L -1.268,3.112 C -1.705,2.942 -1.879,2.314 -1.645,1.741 l 0.407,-1 C -1.005,0.17 -0.436,-0.171 0,0" /></g><g
           transform="translate(255.9641,361.2474)"
           id="g100"><path
             id="path102"
             style="fill:#f7c416;fill-opacity:1;fill-rule:nonzero;stroke:none"
             d="M 0,0 1.219,0.477 C 1.515,0.592 1.65,0.959 1.512,1.297 L 1.223,2.007 C 1.087,2.34 0.73,2.518 0.435,2.402 L -0.785,1.926 C -1.08,1.81 -1.215,1.439 -1.079,1.106 L -0.79,0.397 C -0.653,0.059 -0.295,-0.115 0,0" /></g><g
           transform="translate(260.9882,359.4364)"
           id="g104"><path
             id="path106"
             style="fill:#f7c416;fill-opacity:1;fill-rule:nonzero;stroke:none"
             d="M 0,0 C 0.873,0.341 1.28,1.357 0.909,2.268 0.537,3.181 -0.473,3.642 -1.345,3.3 -2.218,2.959 -2.625,1.945 -2.253,1.032 -1.882,0.12 -0.873,-0.341 0,0" /></g><g
           transform="translate(259.4064,339.9192)"
           id="g108"><path
             id="path110"
             style="fill:#f7c416;fill-opacity:1;fill-rule:nonzero;stroke:none"
             d="M 0,0 1.748,0.683 2.209,0.864 C 2.973,1.162 3.316,2.082 2.977,2.913 L 2.452,4.202 C 2.114,5.031 1.219,5.465 0.456,5.167 L -1.161,4.535 -1.754,4.303 C -2.516,4.005 -2.857,3.088 -2.519,2.258 L -1.993,0.969 C -1.655,0.139 -0.762,-0.298 0,0" /></g><g
           transform="translate(257.8456,345.4339)"
           id="g112"><path
             id="path114"
             style="fill:#f7c416;fill-opacity:1;fill-rule:nonzero;stroke:none"
             d="M 0,0 1.617,0.632 2.079,0.813 C 2.782,1.088 3.082,1.964 2.755,2.765 L 2.242,4.025 C 1.914,4.829 1.082,5.259 0.379,4.984 L -1.7,4.171 C -2.401,3.897 -2.706,3.023 -2.379,2.218 L -1.865,0.959 C -1.539,0.157 -0.701,-0.274 0,0" /></g><g
           transform="translate(268.7099,336.7154)"
           id="g116"><path
             id="path118"
             style="fill:#f7c416;fill-opacity:1;fill-rule:nonzero;stroke:none"
             d="m 0,0 c -1.503,-0.588 -2.205,-2.338 -1.565,-3.908 0.64,-1.57 2.379,-2.365 3.882,-1.778 1.506,0.589 2.205,2.338 1.565,3.908 C 3.242,-0.208 1.505,0.589 0,0" /></g><g
           transform="translate(273.0003,356.1954)"
           id="g120"><path
             id="path122"
             style="fill:#f7c416;fill-opacity:1;fill-rule:nonzero;stroke:none"
             d="m 0,0 c -0.701,-0.274 -1.004,-1.148 -0.676,-1.952 l 0.513,-1.26 C 0.164,-4.013 0.999,-4.445 1.7,-4.171 l 0.46,0.179 1.617,0.633 c 0.704,0.275 1.007,1.152 0.68,1.954 L 3.944,-0.146 C 3.616,0.659 2.781,1.087 2.077,0.812 Z" /></g><g
           transform="translate(269.774,358.8664)"
           id="g124"><path
             id="path126"
             style="fill:#f7c416;fill-opacity:1;fill-rule:nonzero;stroke:none"
             d="m 0,0 0.431,-1.056 c 0.258,-0.635 0.96,-0.957 1.561,-0.722 l 1.87,0.731 c 0.602,0.236 0.882,0.942 0.623,1.576 L 4.055,1.585 C 3.797,2.219 3.097,2.543 2.494,2.308 L 0.625,1.577 C 0.024,1.342 -0.258,0.634 0,0" /></g><g
           transform="translate(277.1765,351.856)"
           id="g128"><path
             id="path130"
             style="fill:#f7c416;fill-opacity:1;fill-rule:nonzero;stroke:none"
             d="M 0,0 -1.617,-0.632 C -2.379,-0.93 -2.723,-1.849 -2.385,-2.678 l 0.526,-1.289 c 0.338,-0.831 1.233,-1.266 1.996,-0.968 l 0.461,0.18 1.75,0.684 c 0.76,0.298 1.105,1.218 0.766,2.049 L 2.589,-0.733 C 2.251,0.096 1.355,0.53 0.594,0.232 Z" /></g><g
           transform="translate(279.9227,346.8071)"
           id="g132"><path
             id="path134"
             style="fill:#f7c416;fill-opacity:1;fill-rule:nonzero;stroke:none"
             d="m 0,0 -1.75,-0.684 c -0.819,-0.32 -1.181,-1.337 -0.804,-2.262 l 0.572,-1.403 c 0.377,-0.926 1.355,-1.42 2.174,-1.099 l 0.462,0.18 1.879,0.735 c 0.82,0.321 1.183,1.338 0.806,2.265 L 2.767,-0.866 C 2.39,0.06 1.411,0.552 0.591,0.231 Z" /></g><g
           transform="translate(274.0667,340.6276)"
           id="g136"><path
             id="path138"
             style="fill:#f7c416;fill-opacity:1;fill-rule:nonzero;stroke:none"
             d="M 0,0 C 1.346,0.526 1.975,2.093 1.402,3.499 0.828,4.908 -0.731,5.621 -2.076,5.094 -3.425,4.567 -4.053,2.999 -3.479,1.591 -2.906,0.184 -1.349,-0.527 0,0" /></g><g
           transform="translate(271.9058,350.6869)"
           id="g140"><path
             id="path142"
             style="fill:#f7c416;fill-opacity:1;fill-rule:nonzero;stroke:none"
             d="M 0,0 C -0.49,1.202 -1.82,1.813 -2.972,1.363 -4.125,0.912 -4.661,-0.429 -4.171,-1.631 -3.681,-2.833 -2.35,-3.444 -1.197,-2.993 -0.045,-2.543 0.49,-1.203 0,0" /></g><g
           transform="translate(291.1164,329.2639)"
           id="g144"><path
             id="path146"
             style="fill:#f7c416;fill-opacity:1;fill-rule:nonzero;stroke:none"
             d="M 0,0 C -0.378,0.927 -1.455,1.38 -2.401,1.01 L -4.998,-0.006 C -5.942,-0.375 -6.405,-1.43 -6.027,-2.357 l 0.572,-1.402 c 0.377,-0.926 1.454,-1.379 2.398,-1.009 l 2.597,1.015 c 0.946,0.37 1.409,1.424 1.032,2.351 z" /></g><g
           transform="translate(260.6831,365.1156)"
           id="g148"><path
             id="path150"
             style="fill:#f7c416;fill-opacity:1;fill-rule:nonzero;stroke:none"
             d="M 0,0 C 0.706,0.276 1.036,1.098 0.735,1.836 0.434,2.575 -0.383,2.949 -1.089,2.673 -1.797,2.396 -2.126,1.574 -1.825,0.835 -1.524,0.097 -0.708,-0.277 0,0" /></g><g
           transform="translate(282.8526,341.299)"
           id="g152"><path
             id="path154"
             style="fill:#f7c416;fill-opacity:1;fill-rule:nonzero;stroke:none"
             d="m 0,0 -1.878,-0.734 c -0.882,-0.345 -1.291,-1.383 -0.913,-2.31 l 0.571,-1.401 c 0.378,-0.928 1.403,-1.401 2.285,-1.057 l 0.462,0.181 2.007,0.785 c 0.886,0.346 1.295,1.38 0.917,2.308 L 2.88,-0.827 C 2.502,0.1 1.477,0.578 0.591,0.231 Z" /></g><g
           transform="translate(285.7834,335.7878)"
           id="g156"><path
             id="path158"
             style="fill:#f7c416;fill-opacity:1;fill-rule:nonzero;stroke:none"
             d="m 0,0 -2.007,-0.785 c -0.944,-0.369 -1.404,-1.428 -1.027,-2.353 l 0.571,-1.403 c 0.378,-0.926 1.454,-1.378 2.399,-1.009 l 2.597,1.016 c 0.946,0.37 1.409,1.423 1.031,2.35 L 2.993,-0.782 C 2.616,0.143 1.537,0.601 0.591,0.231 Z" /></g><g
           transform="translate(265.8545,365.1145)"
           id="g160"><path
             id="path162"
             style="fill:#f7c416;fill-opacity:1;fill-rule:nonzero;stroke:none"
             d="m 0,0 1.22,0.477 c 0.297,0.116 0.428,0.481 0.29,0.82 L 1.221,2.006 C 1.086,2.339 0.732,2.519 0.435,2.403 L -0.785,1.926 C -1.083,1.809 -1.213,1.44 -1.077,1.107 L -0.788,0.398 C -0.651,0.06 -0.299,-0.117 0,0" /></g><g
           transform="translate(267.1139,362.9365)"
           id="g164"><path
             id="path166"
             style="fill:#f7c416;fill-opacity:1;fill-rule:nonzero;stroke:none"
             d="M 0,0 0.407,-0.999 C 0.64,-1.571 1.209,-1.911 1.65,-1.739 l 1.538,0.602 c 0.438,0.171 0.613,0.802 0.38,1.374 L 3.161,1.236 C 2.928,1.809 2.358,2.146 1.919,1.975 L 0.381,1.374 C -0.059,1.201 -0.234,0.573 0,0" /></g><g
           transform="translate(264.8075,356.1487)"
           id="g168"><path
             id="path170"
             style="fill:#f7c416;fill-opacity:1;fill-rule:nonzero;stroke:none"
             d="M 0,0 C 0.444,-1.09 1.652,-1.644 2.698,-1.235 3.743,-0.827 4.229,0.389 3.785,1.48 3.34,2.571 2.133,3.123 1.088,2.715 0.042,2.306 -0.445,1.091 0,0" /></g><g
           transform="translate(262.4051,361.9032)"
           id="g172"><path
             id="path174"
             style="fill:#f7c416;fill-opacity:1;fill-rule:nonzero;stroke:none"
             d="M 0,0 C 0.371,-0.911 1.379,-1.373 2.252,-1.032 3.125,-0.691 3.533,0.325 3.161,1.236 2.789,2.149 1.78,2.609 0.907,2.268 0.034,1.927 -0.372,0.913 0,0" /></g><g
           transform="translate(275.0337,339.188)"
           id="g176"><path
             id="path178"
             style="fill:#f7c416;fill-opacity:1;fill-rule:nonzero;stroke:none"
             d="m 0,0 c -1.504,-0.588 -2.205,-2.338 -1.566,-3.908 0.64,-1.57 2.379,-2.366 3.883,-1.778 1.504,0.588 2.204,2.338 1.564,3.908 C 3.241,-0.208 1.504,0.588 0,0" /></g><g
           transform="translate(278.1224,331.6094)"
           id="g180"><path
             id="path182"
             style="fill:#f7c416;fill-opacity:1;fill-rule:nonzero;stroke:none"
             d="m 0,0 c -1.504,-0.588 -2.205,-2.338 -1.566,-3.907 0.64,-1.57 2.379,-2.366 3.883,-1.778 1.504,0.588 2.204,2.337 1.564,3.908 C 3.241,-0.208 1.504,0.588 0,0" /></g><g
           transform="translate(289.2451,304.3186)"
           id="g184"><path
             id="path186"
             style="fill:#f7c416;fill-opacity:1;fill-rule:nonzero;stroke:none"
             d="m 0,0 c -1.504,-0.588 -2.205,-2.339 -1.566,-3.908 0.641,-1.572 2.38,-2.367 3.884,-1.779 1.504,0.588 2.204,2.337 1.563,3.909 C 3.242,-0.209 1.504,0.588 0,0" /></g><g
           transform="translate(296.065,293.832)"
           id="g188"><path
             id="path190"
             style="fill:#f7c416;fill-opacity:1;fill-rule:nonzero;stroke:none"
             d="m 0,0 c -0.166,0.841 -0.339,1.69 -0.519,2.543 -0.799,1.12 -2.244,1.619 -3.52,1.12 -1.504,-0.588 -2.206,-2.337 -1.565,-3.908 0.64,-1.571 2.378,-2.364 3.882,-1.776 C -0.821,-1.669 -0.207,-0.899 0,0" /></g><g
           transform="translate(286.4648,311.1405)"
           id="g192"><path
             id="path194"
             style="fill:#f7c416;fill-opacity:1;fill-rule:nonzero;stroke:none"
             d="m 0,0 c -1.504,-0.588 -2.206,-2.337 -1.565,-3.908 0.64,-1.571 2.379,-2.366 3.882,-1.778 1.504,0.588 2.205,2.337 1.564,3.908 C 3.241,-0.208 1.504,0.588 0,0" /></g><g
           transform="translate(280.903,324.787)"
           id="g196"><path
             id="path198"
             style="fill:#f7c416;fill-opacity:1;fill-rule:nonzero;stroke:none"
             d="m 0,0 c -1.504,-0.588 -2.206,-2.337 -1.565,-3.908 0.639,-1.57 2.378,-2.366 3.882,-1.778 1.504,0.588 2.204,2.338 1.564,3.908 C 3.241,-0.208 1.504,0.588 0,0" /></g><g
           transform="translate(283.6839,317.9637)"
           id="g200"><path
             id="path202"
             style="fill:#f7c416;fill-opacity:1;fill-rule:nonzero;stroke:none"
             d="m 0,0 c -1.504,-0.588 -2.206,-2.337 -1.565,-3.908 0.639,-1.57 2.378,-2.365 3.882,-1.777 1.504,0.588 2.204,2.337 1.564,3.907 C 3.241,-0.208 1.504,0.588 0,0" /></g><g
           transform="translate(317.0846,324.7476)"
           id="g204"><path
             id="path206"
             style="fill:#f7c416;fill-opacity:1;fill-rule:nonzero;stroke:none"
             d="m 0,0 c -1.516,0.542 -3.236,-0.306 -3.842,-1.896 -0.605,-1.589 0.134,-3.317 1.65,-3.859 1.517,-0.542 3.236,0.307 3.841,1.896 C 2.255,-2.269 1.518,-0.542 0,0" /></g><g
           transform="translate(314.4536,317.8415)"
           id="g208"><path
             id="path210"
             style="fill:#f7c416;fill-opacity:1;fill-rule:nonzero;stroke:none"
             d="m 0,0 c -1.516,0.542 -3.236,-0.306 -3.842,-1.896 -0.605,-1.589 0.134,-3.317 1.65,-3.858 1.518,-0.542 3.236,0.306 3.841,1.896 C 2.255,-2.269 1.518,-0.542 0,0" /></g><g
           transform="translate(319.7153,331.6529)"
           id="g212"><path
             id="path214"
             style="fill:#f7c416;fill-opacity:1;fill-rule:nonzero;stroke:none"
             d="m 0,0 c -1.516,0.542 -3.237,-0.307 -3.842,-1.895 -0.605,-1.59 0.134,-3.318 1.65,-3.859 1.518,-0.542 3.236,0.307 3.842,1.897 C 2.255,-2.269 1.518,-0.542 0,0" /></g><g
           transform="translate(311.8227,310.9355)"
           id="g216"><path
             id="path218"
             style="fill:#f7c416;fill-opacity:1;fill-rule:nonzero;stroke:none"
             d="m 0,0 c -1.516,0.542 -3.236,-0.306 -3.842,-1.896 -0.606,-1.59 0.134,-3.318 1.649,-3.859 1.518,-0.542 3.237,0.307 3.842,1.896 C 2.255,-2.269 1.518,-0.542 0,0" /></g><g
           transform="translate(325.5385,345.948)"
           id="g220"><path
             id="path222"
             style="fill:#f7c416;fill-opacity:1;fill-rule:nonzero;stroke:none"
             d="m 0,0 c -1.36,0.486 -2.9,-0.275 -3.443,-1.7 -0.543,-1.424 0.119,-2.97 1.479,-3.456 1.358,-0.486 2.898,0.274 3.44,1.698 C 2.019,-2.033 1.358,-0.485 0,0" /></g><g
           transform="translate(328.455,352.3673)"
           id="g224"><path
             id="path226"
             style="fill:#f7c416;fill-opacity:1;fill-rule:nonzero;stroke:none"
             d="m 0,0 c -1.161,0.415 -2.478,-0.236 -2.942,-1.453 -0.463,-1.217 0.101,-2.541 1.262,-2.956 1.162,-0.415 2.481,0.236 2.944,1.453 C 1.728,-1.739 1.161,-0.415 0,0" /></g><g
           transform="translate(329.8202,355.274)"
           id="g228"><path
             id="path230"
             style="fill:#f7c416;fill-opacity:1;fill-rule:nonzero;stroke:none"
             d="M 0,0 C 1.053,-0.376 2.248,0.215 2.668,1.318 3.089,2.422 2.576,3.622 1.523,3.998 0.47,4.375 -0.725,3.785 -1.145,2.681 -1.566,1.577 -1.054,0.376 0,0" /></g><g
           transform="translate(309.1922,304.0307)"
           id="g232"><path
             id="path234"
             style="fill:#f7c416;fill-opacity:1;fill-rule:nonzero;stroke:none"
             d="m 0,0 c -1.248,0.446 -2.636,-0.051 -3.424,-1.128 -0.148,-0.902 -0.319,-1.817 -0.512,-2.748 0.246,-0.852 0.864,-1.566 1.743,-1.88 1.518,-0.543 3.236,0.306 3.843,1.898 C 2.255,-2.27 1.518,-0.542 0,0" /></g><g
           transform="translate(315.1474,342.1825)"
           id="g236"><path
             id="path238"
             style="fill:#f7c416;fill-opacity:1;fill-rule:nonzero;stroke:none"
             d="m 0,0 1.892,-0.676 0.466,-0.167 c 0.831,-0.297 1.796,0.227 2.154,1.165 l 0.54,1.42 C 5.409,2.678 5.026,3.683 4.195,3.979 L 2.433,4.609 1.837,4.822 C 1.01,5.117 0.043,4.595 -0.313,3.659 L -0.854,2.239 C -1.212,1.301 -0.827,0.295 0,0" /></g><g
           transform="translate(308.6964,331.5921)"
           id="g240"><path
             id="path242"
             style="fill:#f7c416;fill-opacity:1;fill-rule:nonzero;stroke:none"
             d="M 0,0 C 0.205,-0.268 0.487,-0.482 0.832,-0.605 L 3.45,-1.541 c 0.954,-0.341 2.019,0.144 2.377,1.082 L 6.367,0.96 C 6.724,1.897 6.241,2.941 5.287,3.282 L 3.265,4.005 2.669,4.218 C 2.324,4.341 1.966,4.354 1.63,4.279 1.038,4.145 0.521,3.728 0.294,3.13 L -0.247,1.711 C -0.475,1.112 -0.361,0.472 0,0" /></g><g
           transform="translate(306.482,325.7795)"
           id="g244"><path
             id="path246"
             style="fill:#f7c416;fill-opacity:1;fill-rule:nonzero;stroke:none"
             d="M 0,0 C 0.205,-0.268 0.487,-0.482 0.832,-0.605 L 3.45,-1.54 c 0.954,-0.341 2.02,0.144 2.377,1.082 L 6.368,0.961 C 6.725,1.899 6.24,2.939 5.286,3.28 L 2.668,4.215 C 2.324,4.339 1.965,4.353 1.63,4.278 1.038,4.145 0.522,3.73 0.294,3.131 L -0.247,1.712 C -0.475,1.113 -0.361,0.473 0,0" /></g><g
           transform="translate(312.3376,336.5835)"
           id="g248"><path
             id="path250"
             style="fill:#f7c416;fill-opacity:1;fill-rule:nonzero;stroke:none"
             d="m 0,0 2.022,-0.722 0.466,-0.167 c 0.895,-0.32 1.907,0.186 2.265,1.125 l 0.54,1.418 C 5.65,2.592 5.221,3.616 4.326,3.936 L 2.434,4.612 1.838,4.825 C 1.128,5.079 0.337,4.807 -0.135,4.211 -0.255,4.06 -0.354,3.888 -0.427,3.698 L -0.967,2.28 C -1.039,2.09 -1.08,1.896 -1.09,1.706 -1.13,0.956 -0.71,0.254 0,0" /></g><g
           transform="translate(323.6252,357.9925)"
           id="g252"><path
             id="path254"
             style="fill:#f7c416;fill-opacity:1;fill-rule:nonzero;stroke:none"
             d="m 0,0 1.885,-0.674 c 0.604,-0.215 1.298,0.129 1.542,0.771 L 3.835,1.166 C 4.079,1.808 3.783,2.506 3.179,2.722 L 1.294,3.395 C 0.688,3.612 -0.005,3.267 -0.249,2.625 L -0.656,1.556 C -0.901,0.914 -0.605,0.216 0,0" /></g><g
           transform="translate(326.9181,362.0563)"
           id="g256"><path
             id="path258"
             style="fill:#f7c416;fill-opacity:1;fill-rule:nonzero;stroke:none"
             d="m 0,0 1.554,-0.555 c 0.442,-0.158 1.004,0.199 1.224,0.778 L 3.164,1.234 C 3.385,1.814 3.196,2.437 2.755,2.595 L 1.2,3.15 C 0.76,3.307 0.2,2.952 -0.021,2.372 L -0.406,1.361 C -0.627,0.782 -0.44,0.157 0,0" /></g><g
           transform="translate(330.0647,365.945)"
           id="g260"><path
             id="path262"
             style="fill:#f7c416;fill-opacity:1;fill-rule:nonzero;stroke:none"
             d="m 0,0 1.229,-0.439 c 0.298,-0.107 0.65,0.079 0.781,0.421 L 2.283,0.7 C 2.412,1.037 2.27,1.403 1.972,1.51 L 0.743,1.949 C 0.445,2.055 0.09,1.867 -0.038,1.53 L -0.312,0.812 C -0.442,0.469 -0.298,0.106 0,0" /></g><g
           transform="translate(332.5363,361.3172)"
           id="g264"><path
             id="path266"
             style="fill:#f7c416;fill-opacity:1;fill-rule:nonzero;stroke:none"
             d="M 0,0 C 0.88,-0.314 1.879,0.178 2.23,1.1 2.582,2.024 2.152,3.026 1.273,3.341 0.393,3.655 -0.606,3.163 -0.958,2.239 -1.309,1.317 -0.88,0.314 0,0" /></g><g
           transform="translate(317.9578,347.7813)"
           id="g268"><path
             id="path270"
             style="fill:#f7c416;fill-opacity:1;fill-rule:nonzero;stroke:none"
             d="m 0,0 1.762,-0.63 0.465,-0.166 c 0.77,-0.275 1.656,0.188 1.976,1.029 L 4.7,1.538 C 5.02,2.377 4.656,3.285 3.887,3.559 L 2.256,4.142 1.659,4.355 C 0.891,4.63 0.009,4.167 -0.311,3.328 L -0.808,2.023 C -1.129,1.183 -0.769,0.275 0,0" /></g><g
           transform="translate(320.5921,352.9152)"
           id="g272"><path
             id="path274"
             style="fill:#f7c416;fill-opacity:1;fill-rule:nonzero;stroke:none"
             d="m 0,0 1.63,-0.583 0.466,-0.166 c 0.708,-0.253 1.532,0.205 1.841,1.016 L 4.423,1.542 C 4.733,2.356 4.413,3.22 3.704,3.473 L 1.608,4.222 C 0.901,4.475 0.075,4.021 -0.235,3.207 L -0.721,1.932 C -1.03,1.12 -0.707,0.253 0,0" /></g><g
           transform="translate(322.6375,339.3235)"
           id="g276"><path
             id="path278"
             style="fill:#f7c416;fill-opacity:1;fill-rule:nonzero;stroke:none"
             d="m 0,0 c -1.516,0.542 -3.237,-0.307 -3.842,-1.896 -0.605,-1.589 0.134,-3.317 1.65,-3.859 1.517,-0.542 3.236,0.307 3.841,1.897 C 2.255,-2.269 1.518,-0.542 0,0" /></g><g
           transform="translate(339.1937,351.0653)"
           id="g280"><path
             id="path282"
             style="fill:#f7c416;fill-opacity:1;fill-rule:nonzero;stroke:none"
             d="m 0,0 c -0.707,0.253 -1.531,-0.202 -1.841,-1.016 l -0.486,-1.275 c -0.309,-0.811 0.012,-1.679 0.719,-1.931 l 0.463,-0.166 1.63,-0.582 c 0.71,-0.254 1.537,0.203 1.846,1.014 l 0.486,1.275 c 0.31,0.815 -0.013,1.679 -0.723,1.933 z" /></g><g
           transform="translate(338.6426,355.1627)"
           id="g284"><path
             id="path286"
             style="fill:#f7c416;fill-opacity:1;fill-rule:nonzero;stroke:none"
             d="M 0,0 -0.407,-1.069 C -0.652,-1.711 -0.354,-2.41 0.252,-2.626 L 2.137,-3.3 c 0.607,-0.217 1.299,0.128 1.544,0.77 l 0.407,1.069 c 0.245,0.642 -0.05,1.34 -0.658,1.557 L 1.546,0.769 C 0.94,0.986 0.244,0.642 0,0" /></g><g
           transform="translate(339.3011,345.1033)"
           id="g288"><path
             id="path290"
             style="fill:#f7c416;fill-opacity:1;fill-rule:nonzero;stroke:none"
             d="M 0,0 -1.63,0.582 C -2.399,0.857 -3.284,0.396 -3.604,-0.444 l -0.497,-1.304 c -0.32,-0.841 0.043,-1.75 0.812,-2.025 l 0.464,-0.166 1.764,-0.63 c 0.768,-0.274 1.655,0.188 1.975,1.029 l 0.497,1.304 c 0.32,0.84 -0.045,1.748 -0.812,2.022 z" /></g><g
           transform="translate(337.8635,339.5442)"
           id="g292"><path
             id="path294"
             style="fill:#f7c416;fill-opacity:1;fill-rule:nonzero;stroke:none"
             d="M 0,0 -1.764,0.63 C -2.59,0.926 -3.556,0.403 -3.913,-0.533 l -0.541,-1.42 c -0.357,-0.938 0.027,-1.944 0.853,-2.239 l 0.466,-0.166 1.894,-0.677 c 0.827,-0.295 1.795,0.227 2.152,1.165 l 0.541,1.42 c 0.357,0.936 -0.029,1.942 -0.856,2.237 z" /></g><g
           transform="translate(329.287,338.7504)"
           id="g296"><path
             id="path298"
             style="fill:#f7c416;fill-opacity:1;fill-rule:nonzero;stroke:none"
             d="M 0,0 C 1.357,-0.485 2.898,0.274 3.441,1.698 3.984,3.123 3.321,4.672 1.964,5.156 0.604,5.642 -0.937,4.881 -1.48,3.456 -2.022,2.032 -1.36,0.486 0,0" /></g><g
           transform="translate(334.5997,347.6677)"
           id="g300"><path
             id="path302"
             style="fill:#f7c416;fill-opacity:1;fill-rule:nonzero;stroke:none"
             d="M 0,0 C 0.463,1.217 -0.1,2.54 -1.262,2.955 -2.424,3.37 -3.742,2.719 -4.205,1.503 -4.669,0.285 -4.104,-1.038 -2.941,-1.454 -1.78,-1.869 -0.464,-1.217 0,0" /></g><g
           transform="translate(334.0897,319.1511)"
           id="g304"><path
             id="path306"
             style="fill:#f7c416;fill-opacity:1;fill-rule:nonzero;stroke:none"
             d="M 0,0 C 0.357,0.938 -0.128,1.978 -1.082,2.319 L -3.7,3.255 C -4.652,3.595 -5.719,3.109 -6.076,2.171 L -6.617,0.752 c -0.357,-0.938 0.128,-1.978 1.08,-2.318 l 2.619,-0.935 c 0.954,-0.341 2.02,0.144 2.377,1.082 z" /></g><g
           transform="translate(336.2124,365.7549)"
           id="g308"><path
             id="path310"
             style="fill:#f7c416;fill-opacity:1;fill-rule:nonzero;stroke:none"
             d="M 0,0 C 0.712,-0.254 1.52,0.144 1.805,0.891 2.09,1.639 1.743,2.451 1.031,2.706 0.317,2.961 -0.491,2.561 -0.776,1.813 -1.061,1.067 -0.714,0.255 0,0" /></g><g
           transform="translate(336.2462,333.5225)"
           id="g312"><path
             id="path314"
             style="fill:#f7c416;fill-opacity:1;fill-rule:nonzero;stroke:none"
             d="M 0,0 -1.894,0.677 C -2.783,0.994 -3.798,0.486 -4.156,-0.452 l -0.54,-1.418 c -0.358,-0.939 0.075,-1.961 0.964,-2.278 l 0.466,-0.167 2.023,-0.723 c 0.894,-0.319 1.907,0.186 2.264,1.125 l 0.541,1.418 c 0.357,0.938 -0.073,1.963 -0.967,2.282 z" /></g><g
           transform="translate(334.6275,327.4978)"
           id="g316"><path
             id="path318"
             style="fill:#f7c416;fill-opacity:1;fill-rule:nonzero;stroke:none"
             d="M 0,0 -2.023,0.723 C -2.975,1.063 -4.043,0.573 -4.4,-0.364 L -4.941,-1.783 C -5.298,-2.721 -4.812,-3.76 -3.86,-4.1 l 2.618,-0.936 c 0.954,-0.341 2.02,0.144 2.378,1.082 l 0.54,1.419 c 0.357,0.937 -0.127,1.981 -1.08,2.322 z" /></g><g
           transform="translate(340.0363,362.382)"
           id="g320"><path
             id="path322"
             style="fill:#f7c416;fill-opacity:1;fill-rule:nonzero;stroke:none"
             d="m 0,0 1.23,-0.44 c 0.3,-0.107 0.648,0.081 0.778,0.423 L 2.281,0.701 C 2.41,1.038 2.272,1.403 1.973,1.509 l -1.23,0.44 C 0.442,2.057 0.092,1.866 -0.036,1.529 L -0.31,0.811 C -0.44,0.469 -0.301,0.108 0,0" /></g><g
           transform="translate(339.4714,359.9352)"
           id="g324"><path
             id="path326"
             style="fill:#f7c416;fill-opacity:1;fill-rule:nonzero;stroke:none"
             d="m 0,0 -0.385,-1.011 c -0.221,-0.579 -0.033,-1.204 0.41,-1.362 l 1.551,-0.555 c 0.442,-0.158 1.005,0.199 1.226,0.778 l 0.385,1.011 c 0.221,0.58 0.032,1.204 -0.411,1.362 L 1.225,0.777 C 0.782,0.935 0.221,0.58 0,0" /></g><g
           transform="translate(333.1023,356.3729)"
           id="g328"><path
             id="path330"
             style="fill:#f7c416;fill-opacity:1;fill-rule:nonzero;stroke:none"
             d="M 0,0 C -0.42,-1.104 0.092,-2.305 1.147,-2.681 2.2,-3.058 3.395,-2.467 3.816,-1.363 4.236,-0.259 3.723,0.941 2.67,1.317 1.616,1.694 0.421,1.104 0,0" /></g><g
           transform="translate(335.279,362.2344)"
           id="g332"><path
             id="path334"
             style="fill:#f7c416;fill-opacity:1;fill-rule:nonzero;stroke:none"
             d="m 0,0 c -0.351,-0.922 0.077,-1.925 0.957,-2.239 0.879,-0.314 1.879,0.178 2.23,1.1 C 3.539,-0.215 3.109,0.787 2.229,1.102 1.349,1.416 0.352,0.924 0,0" /></g><g
           transform="translate(329.0132,337.0453)"
           id="g336"><path
             id="path338"
             style="fill:#f7c416;fill-opacity:1;fill-rule:nonzero;stroke:none"
             d="m 0,0 c -1.516,0.542 -3.237,-0.307 -3.843,-1.896 -0.605,-1.589 0.134,-3.317 1.651,-3.859 1.516,-0.542 3.235,0.308 3.841,1.897 C 2.254,-2.269 1.516,-0.542 0,0" /></g><g
           transform="translate(326.0909,329.3748)"
           id="g340"><path
             id="path342"
             style="fill:#f7c416;fill-opacity:1;fill-rule:nonzero;stroke:none"
             d="m 0,0 c -1.516,0.542 -3.237,-0.307 -3.842,-1.895 -0.606,-1.589 0.134,-3.317 1.65,-3.859 1.516,-0.542 3.236,0.307 3.841,1.897 C 2.254,-2.269 1.516,-0.542 0,0" /></g><g
           transform="translate(315.5679,301.7526)"
           id="g344"><path
             id="path346"
             style="fill:#f7c416;fill-opacity:1;fill-rule:nonzero;stroke:none"
             d="m 0,0 c -1.516,0.542 -3.238,-0.308 -3.843,-1.896 -0.606,-1.591 0.134,-3.319 1.65,-3.86 1.516,-0.542 3.236,0.307 3.842,1.898 C 2.254,-2.27 1.516,-0.542 0,0" /></g><g
           transform="translate(309.4059,291.4458)"
           id="g348"><path
             id="path350"
             style="fill:#f7c416;fill-opacity:1;fill-rule:nonzero;stroke:none"
             d="M 0,0 C 0.455,0.737 0.91,1.483 1.363,2.237 1.542,3.594 0.816,4.908 -0.47,5.368 -1.987,5.91 -3.707,5.062 -4.313,3.472 -4.919,1.882 -4.178,0.156 -2.662,-0.385 -1.754,-0.71 -0.771,-0.536 0,0" /></g><g
           transform="translate(318.1983,308.6573)"
           id="g352"><path
             id="path354"
             style="fill:#f7c416;fill-opacity:1;fill-rule:nonzero;stroke:none"
             d="m 0,0 c -1.516,0.542 -3.237,-0.306 -3.843,-1.896 -0.605,-1.59 0.134,-3.317 1.651,-3.859 1.516,-0.542 3.235,0.307 3.841,1.897 C 2.254,-2.268 1.516,-0.542 0,0" /></g><g
           transform="translate(323.4603,322.4695)"
           id="g356"><path
             id="path358"
             style="fill:#f7c416;fill-opacity:1;fill-rule:nonzero;stroke:none"
             d="m 0,0 c -1.516,0.542 -3.237,-0.306 -3.843,-1.896 -0.605,-1.589 0.134,-3.317 1.651,-3.859 1.516,-0.542 3.235,0.308 3.841,1.897 C 2.254,-2.268 1.516,-0.542 0,0" /></g><g
           transform="translate(320.8293,315.5634)"
           id="g360"><path
             id="path362"
             style="fill:#f7c416;fill-opacity:1;fill-rule:nonzero;stroke:none"
             d="m 0,0 c -1.516,0.542 -3.237,-0.306 -3.843,-1.896 -0.605,-1.589 0.135,-3.316 1.651,-3.858 1.516,-0.542 3.235,0.307 3.841,1.896 C 2.254,-2.268 1.516,-0.542 0,0" /></g><g
           transform="translate(293.3024,322.7804)"
           id="g364"><path
             id="path366"
             style="fill:#f7c416;fill-opacity:1;fill-rule:nonzero;stroke:none"
             d="M 0,0 C -0.378,0.927 -1.455,1.38 -2.401,1.01 L -4.998,-0.006 C -5.942,-0.375 -6.405,-1.43 -6.027,-2.357 l 0.572,-1.402 c 0.377,-0.926 1.454,-1.379 2.398,-1.009 l 2.597,1.015 c 0.946,0.37 1.409,1.424 1.032,2.351 z" /></g><g
           transform="translate(292.2936,316.4393)"
           id="g368"><path
             id="path370"
             style="fill:#f7c416;fill-opacity:1;fill-rule:nonzero;stroke:none"
             d="m 0,0 -1.878,-0.734 c -0.882,-0.345 -1.291,-1.383 -0.913,-2.31 l 0.571,-1.401 c 0.378,-0.928 1.403,-1.401 2.285,-1.057 l 0.462,0.181 2.007,0.785 c 0.886,0.346 1.295,1.38 0.917,2.308 L 2.88,-0.827 C 2.502,0.1 1.477,0.577 0.591,0.231 Z" /></g><g
           transform="translate(294.2667,309.006)"
           id="g372"><path
             id="path374"
             style="fill:#f7c416;fill-opacity:1;fill-rule:nonzero;stroke:none"
             d="M 0,0 -1.617,-0.632 C -2.379,-0.93 -2.723,-1.849 -2.385,-2.678 l 0.526,-1.289 c 0.338,-0.831 1.233,-1.266 1.996,-0.968 l 0.461,0.18 1.75,0.684 c 0.76,0.298 1.105,1.218 0.766,2.049 L 2.589,-0.733 C 2.251,0.096 1.355,0.53 0.594,0.232 Z" /></g><g
           transform="translate(293.8079,301.2122)"
           id="g376"><path
             id="path378"
             style="fill:#f7c416;fill-opacity:1;fill-rule:nonzero;stroke:none"
             d="m 0,0 0.431,-1.056 c 0.258,-0.635 0.96,-0.957 1.561,-0.722 l 1.87,0.731 c 0.602,0.236 0.882,0.942 0.623,1.576 L 4.055,1.585 C 3.797,2.219 3.097,2.543 2.494,2.308 L 0.625,1.577 C 0.024,1.342 -0.258,0.634 0,0" /></g><g
           transform="translate(304.2465,318.6223)"
           id="g380"><path
             id="path382"
             style="fill:#f7c416;fill-opacity:1;fill-rule:nonzero;stroke:none"
             d="M 0,0 C 0.205,-0.268 0.487,-0.482 0.832,-0.605 L 3.45,-1.541 c 0.954,-0.341 2.019,0.144 2.377,1.082 L 6.368,0.96 C 6.724,1.897 6.241,2.941 5.287,3.282 L 3.265,4.005 2.669,4.218 C 2.324,4.341 1.966,4.354 1.63,4.279 1.038,4.145 0.522,3.728 0.294,3.13 L -0.247,1.711 C -0.475,1.112 -0.361,0.472 0,0" /></g><g
           transform="translate(303.6335,311.1438)"
           id="g384"><path
             id="path386"
             style="fill:#f7c416;fill-opacity:1;fill-rule:nonzero;stroke:none"
             d="m 0,0 2.022,-0.722 0.466,-0.167 c 0.895,-0.32 1.907,0.186 2.265,1.125 l 0.54,1.418 C 5.65,2.592 5.221,3.616 4.326,3.936 L 2.434,4.612 1.838,4.825 C 1.128,5.079 0.337,4.807 -0.135,4.211 -0.255,4.06 -0.354,3.888 -0.427,3.698 L -0.967,2.28 C -1.039,2.09 -1.08,1.896 -1.09,1.706 -1.13,0.956 -0.71,0.254 0,0" /></g><g
           transform="translate(301.0526,304.5196)"
           id="g388"><path
             id="path390"
             style="fill:#f7c416;fill-opacity:1;fill-rule:nonzero;stroke:none"
             d="m 0,0 1.892,-0.676 0.466,-0.167 c 0.831,-0.297 1.796,0.227 2.154,1.165 l 0.54,1.42 C 5.409,2.678 5.026,3.683 4.195,3.979 L 2.433,4.609 1.837,4.822 C 1.01,5.117 0.043,4.595 -0.313,3.659 L -0.854,2.239 C -1.212,1.301 -0.827,0.295 0,0" /></g><g
           transform="translate(299.9507,298.1991)"
           id="g392"><path
             id="path394"
             style="fill:#f7c416;fill-opacity:1;fill-rule:nonzero;stroke:none"
             d="m 0,0 1.762,-0.63 0.465,-0.166 c 0.77,-0.275 1.655,0.188 1.976,1.029 L 4.7,1.537 C 5.02,2.377 4.656,3.284 3.887,3.559 L 2.256,4.142 1.659,4.355 C 0.891,4.63 0.009,4.167 -0.311,3.328 L -0.808,2.023 C -1.129,1.182 -0.769,0.275 0,0" /></g><g
           transform="translate(297.1007,295.0646)"
           id="g396"><path
             id="path398"
             style="fill:#f7c416;fill-opacity:1;fill-rule:nonzero;stroke:none"
             d="m 0,0 1.554,-0.555 c 0.442,-0.158 1.004,0.199 1.224,0.778 L 3.164,1.234 C 3.385,1.814 3.196,2.437 2.755,2.595 L 1.2,3.15 C 0.76,3.307 0.2,2.952 -0.021,2.372 L -0.406,1.361 C -0.627,0.782 -0.44,0.157 0,0" /></g><g
           transform="translate(300.6315,292.2812)"
           id="g400"><path
             id="path402"
             style="fill:#f7c416;fill-opacity:1;fill-rule:nonzero;stroke:none"
             d="M 0,0 1.37,-0.485 C 1.809,-0.64 2.353,-0.279 2.581,0.323 L 2.96,1.325 C 3.188,1.927 3.013,2.543 2.574,2.698 L 1.204,3.183 C 0.764,3.339 0.22,2.977 -0.007,2.376 L -0.387,1.373 C -0.614,0.771 -0.44,0.156 0,0" /></g><g
           transform="translate(297.6917,289.832)"
           id="g404"><path
             id="path406"
             style="fill:#f7c416;fill-opacity:1;fill-rule:nonzero;stroke:none"
             d="M 0,0 1.37,-0.485 C 1.809,-0.64 2.353,-0.279 2.581,0.323 L 2.96,1.325 C 3.188,1.927 3.013,2.543 2.574,2.698 L 1.204,3.183 C 0.764,3.339 0.22,2.977 -0.007,2.376 L -0.387,1.373 C -0.614,0.771 -0.44,0.156 0,0" /></g><g
           transform="translate(329.6066,314.9168)"
           id="g408"><path
             id="path410"
             style="fill:#f7c416;fill-opacity:1;fill-rule:nonzero;stroke:none"
             d="M 0,0 -2.023,0.723 C -2.975,1.063 -4.043,0.573 -4.4,-0.364 L -4.941,-1.783 C -5.298,-2.721 -4.812,-3.76 -3.86,-4.1 l 2.618,-0.936 c 0.954,-0.341 2.02,0.144 2.378,1.082 l 0.54,1.419 c 0.357,0.937 -0.127,1.981 -1.08,2.322 z" /></g><g
           transform="translate(326.7007,308.522)"
           id="g412"><path
             id="path414"
             style="fill:#f7c416;fill-opacity:1;fill-rule:nonzero;stroke:none"
             d="M 0,0 -1.894,0.677 C -2.783,0.994 -3.798,0.486 -4.156,-0.452 l -0.54,-1.418 c -0.358,-0.939 0.075,-1.961 0.964,-2.278 l 0.466,-0.167 2.023,-0.723 c 0.894,-0.319 1.907,0.186 2.264,1.125 l 0.541,1.418 c 0.357,0.938 -0.073,1.963 -0.967,2.282 z" /></g><g
           transform="translate(322.6693,301.3797)"
           id="g416"><path
             id="path418"
             style="fill:#f7c416;fill-opacity:1;fill-rule:nonzero;stroke:none"
             d="M 0,0 -1.63,0.582 C -2.399,0.857 -3.284,0.396 -3.604,-0.444 l -0.497,-1.304 c -0.32,-0.841 0.043,-1.75 0.812,-2.025 l 0.464,-0.166 1.764,-0.63 c 0.768,-0.274 1.655,0.188 1.975,1.029 l 0.497,1.304 c 0.32,0.84 -0.045,1.748 -0.812,2.022 z" /></g><g
           transform="translate(316.1413,294.6967)"
           id="g420"><path
             id="path422"
             style="fill:#f7c416;fill-opacity:1;fill-rule:nonzero;stroke:none"
             d="M 0,0 -0.407,-1.069 C -0.652,-1.711 -0.354,-2.41 0.252,-2.626 L 2.137,-3.3 c 0.607,-0.217 1.299,0.128 1.544,0.77 l 0.407,1.069 c 0.245,0.642 -0.05,1.34 -0.658,1.557 L 1.546,0.769 C 0.94,0.986 0.244,0.642 0,0" /></g><g
           transform="translate(311.6867,291.7926)"
           id="g424"><path
             id="path426"
             style="fill:#f7c416;fill-opacity:1;fill-rule:nonzero;stroke:none"
             d="m 0,0 -0.447,-1.18 c -0.256,-0.674 -0.099,-1.381 0.345,-1.538 L 1.45,-3.27 c 0.442,-0.157 1.036,0.282 1.292,0.957 l 0.447,1.18 c 0.257,0.676 0.097,1.38 -0.346,1.538 L 1.292,0.956 C 0.847,1.114 0.257,0.677 0,0" /></g><g
           transform="translate(270.0784,315.407)"
           id="g428"><path
             id="path430"
             style="fill:#f7c416;fill-opacity:1;fill-rule:nonzero;stroke:none"
             d="m 0,0 -1.822,-0.851 c -0.855,-0.4 -1.219,-1.476 -0.813,-2.394 l 0.613,-1.388 c 0.407,-0.919 1.433,-1.34 2.288,-0.941 l 0.449,0.21 1.946,0.909 c 0.86,0.402 1.224,1.474 0.818,2.393 L 2.865,-0.674 C 2.459,0.244 1.433,0.669 0.573,0.268 Z" /></g><g
           transform="translate(273.7795,304.143)"
           id="g432"><path
             id="path434"
             style="fill:#f7c416;fill-opacity:1;fill-rule:nonzero;stroke:none"
             d="M 0,0 1.877,0.734 2.339,0.915 C 3.163,1.237 3.524,2.253 3.146,3.18 L 2.574,4.583 C 2.197,5.508 1.222,6.001 0.397,5.679 L -1.35,4.995 -1.942,4.764 C -2.762,4.444 -3.125,3.427 -2.748,2.502 L -2.176,1.099 C -1.798,0.173 -0.82,-0.321 0,0" /></g><g
           transform="translate(276.6837,299.1981)"
           id="g436"><path
             id="path438"
             style="fill:#f7c416;fill-opacity:1;fill-rule:nonzero;stroke:none"
             d="M 0,0 1.617,0.632 2.079,0.813 C 2.782,1.088 3.082,1.964 2.755,2.765 L 2.242,4.025 C 1.914,4.829 1.081,5.259 0.379,4.984 L -1.7,4.171 C -2.401,3.897 -2.706,3.023 -2.379,2.218 L -1.865,0.959 C -1.539,0.157 -0.701,-0.274 0,0" /></g><g
           transform="translate(280.0508,295.2203)"
           id="g440"><path
             id="path442"
             style="fill:#f7c416;fill-opacity:1;fill-rule:nonzero;stroke:none"
             d="M 0,0 1.87,0.731 C 2.469,0.965 2.75,1.672 2.492,2.306 L 2.061,3.363 C 1.803,3.997 1.102,4.32 0.503,4.086 L -1.367,3.355 C -1.968,3.12 -2.248,2.413 -1.99,1.779 L -1.559,0.723 C -1.3,0.088 -0.601,-0.235 0,0" /></g><g
           transform="translate(283.694,302.0912)"
           id="g444"><path
             id="path446"
             style="fill:#f7c416;fill-opacity:1;fill-rule:nonzero;stroke:none"
             d="m 0,0 c -1.152,-0.45 -1.687,-1.791 -1.197,-2.993 0.49,-1.202 1.821,-1.813 2.972,-1.363 1.152,0.451 1.69,1.792 1.199,2.994 C 2.485,-0.16 1.152,0.45 0,0" /></g><g
           transform="translate(282.5971,291.0555)"
           id="g448"><path
             id="path450"
             style="fill:#f7c416;fill-opacity:1;fill-rule:nonzero;stroke:none"
             d="m 0,0 1.542,0.603 c 0.437,0.171 0.612,0.802 0.379,1.373 l -0.407,1 C 1.28,3.549 0.711,3.886 0.273,3.715 L -1.268,3.112 C -1.705,2.942 -1.879,2.314 -1.645,1.741 l 0.407,-1 C -1.005,0.17 -0.436,-0.171 0,0" /></g><g
           transform="translate(289.6848,293.4842)"
           id="g452"><path
             id="path454"
             style="fill:#f7c416;fill-opacity:1;fill-rule:nonzero;stroke:none"
             d="M 0,0 C -0.132,0.662 -0.269,1.33 -0.412,2.001 -1.038,2.883 -2.168,3.279 -3.163,2.89 -4.336,2.431 -4.88,1.058 -4.376,-0.179 -3.872,-1.415 -2.513,-2.043 -1.34,-1.585 -0.637,-1.31 -0.16,-0.706 0,0" /></g><g
           transform="translate(289.8405,291.7272)"
           id="g456"><path
             id="path458"
             style="fill:#f7c416;fill-opacity:1;fill-rule:nonzero;stroke:none"
             d="m 0,0 c -1.102,-0.43 -1.568,-1.833 -1.039,-3.133 0.529,-1.302 1.852,-2.007 2.954,-1.578 1.102,0.43 1.567,1.832 1.038,3.135 C 2.424,-0.277 1.102,0.43 0,0" /></g><g
           transform="translate(304.9017,291.731)"
           id="g460"><path
             id="path462"
             style="fill:#f7c416;fill-opacity:1;fill-rule:nonzero;stroke:none"
             d="m 0,0 c -1.124,0.402 -2.382,-0.181 -2.811,-1.305 -0.429,-1.123 0.136,-2.359 1.259,-2.761 1.124,-0.402 2.382,0.182 2.81,1.305 C 1.687,-1.638 1.123,-0.402 0,0" /></g><g
           transform="translate(309.192,289.9784)"
           id="g464"><path
             id="path466"
             style="fill:#f7c416;fill-opacity:1;fill-rule:nonzero;stroke:none"
             d="m 0,0 c -1.123,0.402 -2.382,-0.181 -2.811,-1.305 -0.429,-1.123 0.136,-2.359 1.26,-2.761 1.123,-0.402 2.381,0.182 2.809,1.305 C 1.687,-1.638 1.124,-0.402 0,0" /></g><g
           transform="translate(296.3582,290.2647)"
           id="g468"><path
             id="path470"
             style="fill:#f7c416;fill-opacity:1;fill-rule:nonzero;stroke:none"
             d="m 0,0 c -1.123,0.402 -2.382,-0.181 -2.811,-1.305 -0.429,-1.123 0.136,-2.359 1.26,-2.761 1.123,-0.402 2.381,0.182 2.809,1.305 C 1.687,-1.638 1.124,-0.402 0,0" /></g><g
           transform="translate(301.0541,288.5511)"
           id="g472"><path
             id="path474"
             style="fill:#f7c416;fill-opacity:1;fill-rule:nonzero;stroke:none"
             d="m 0,0 c -1.123,0.402 -2.382,-0.181 -2.811,-1.305 -0.429,-1.123 0.136,-2.359 1.26,-2.761 1.123,-0.402 2.381,0.182 2.809,1.305 C 1.687,-1.638 1.124,-0.402 0,0" /></g><g
           transform="translate(344.9422,337.6881)"
           id="g476"><path
             id="path478"
             style="fill:#b0d527;fill-opacity:1;fill-rule:nonzero;stroke:none"
             d="m 0,0 c -4.459,-9.828 -3.971,-19.18 -10.636,-33.028 -3.74,-7.773 -6.56,-11.578 -10.7,-15.167 -3.203,-2.778 -6.929,-5.036 -11.201,-6.72 -2.204,-0.87 -3.978,-2.014 -3.619,-4.639 0.756,-5.529 -5.635,-4.918 -5.434,-10.842 0.097,-2.869 -4.752,-1.326 -7.304,-1.328 -1.984,-0.002 -3.946,1.068 -3.814,3.217 0.389,6.328 -5.79,4.953 -4.547,11.665 0.174,0.939 -1.387,1.251 -2.307,1.582 -15.726,5.659 -22.946,18.313 -26.893,33.342 -2.913,11.09 -11.445,32.224 -11.445,32.224 0,0 -9.946,21.634 1.289,3.141 2.642,-3.421 5.195,-6.364 7.697,-11.354 1.502,-2.995 2.108,-3.739 3.161,-5.609 l -0.016,-0.012 c 1.266,-2.371 2.532,-4.741 3.798,-7.112 l 0.07,-0.064 c 1.022,-2.024 2.044,-4.049 3.066,-6.074 l 3.852,-9.866 c 1.316,-2.257 2.741,-4.572 4.284,-6.931 2.63,-4.021 5.29,-7.692 7.9,-11.026 0.672,-0.453 9.97,-6.671 15.027,-7.287 0.546,-0.067 1.672,-0.204 3.054,0.123 2.444,0.578 5.572,1.615 5.572,1.615 0,0 5.443,3.075 9.798,7.467 5.156,6.091 8.633,8.323 11.3,16.138 3.453,10.116 16.274,31.967 16.274,31.967 l 8.806,11.406 c 0,0 4.064,4.599 4.6,4.185 C 11.825,20.863 9.99,17.993 8.649,15.814 8.649,15.814 4.593,10.123 0,0" /></g></g></g><g
       id="g480"><g
         id="g482"><g
           id="g488"><g
             id="g490"><path
               id="path514"
               style="fill:url(#linearGradient512);stroke:none"
               d="m 177.436,265.993 -22.032,-5.151 c 0,0 20.831,-21.038 75.249,-23.901 v 0 l -0.204,35.791 c 0,0 -38.766,-4.277 -59.406,14.118 v 0 z" /></g></g></g></g><g
       id="g516"><g
         id="g518"><g
           id="g524"><g
             id="g526"><path
               id="path542"
               style="fill:url(#linearGradient540);stroke:none"
               d="m 195.206,264.067 0.316,-27.327 c 19.346,-0.242 35.089,7.606 35.089,7.606 v 0 l -0.162,28.386 c -17.555,-8.035 -35.243,-8.665 -35.243,-8.665" /></g></g></g></g><g
       id="g544"><g
         id="g546"><g
           id="g552"><g
             id="g554"><path
               id="path578"
               style="fill:url(#linearGradient576);stroke:none"
               d="m 373.916,273.551 0.204,-35.792 c 54.383,3.485 74.779,24.758 74.779,24.758 v 0 l -22.28,4.898 6.282,20.93 c -20.428,-18.63 -58.985,-14.794 -58.985,-14.794" /></g></g></g></g><g
       id="g580"><g
         id="g582"><g
           id="g588"><g
             id="g590"><path
               id="path606"
               style="fill:url(#linearGradient604);stroke:none"
               d="m 374.078,245.165 c 0,0 15.705,-7.668 35.046,-7.205 v 0 l -0.125,27.328 c 0,0 -17.438,0.429 -35.083,8.263 v 0 z" /></g></g></g></g><g
       id="g608"><g
         id="g610"><g
           id="g616"><g
             id="g618"><path
               id="path642"
               style="fill:url(#linearGradient640);stroke:none"
               d="m 303.097,253.201 v 0.021 c 0,0 -0.082,-0.006 -0.801,-0.017 v 0 c -0.719,0.003 -0.8,0.008 -0.8,0.008 v 0 -0.02 c -11.733,-0.136 -66.55,-0.226 -105.769,9.202 v 0 l 0.197,-25.663 c 0.116,-0.433 4.41,-14.044 105.744,-13.662 v 0 -0.005 c 0,0 0.431,0.005 0.8,0.007 v 0 c 0.369,0.002 0.8,0.002 0.8,0.002 v 0 0.004 c 101.866,0.78 105.5,14.564 105.573,14.873 v 0 L 408.61,263.61 C 369.5,253.735 314.83,253.201 303.097,253.201" /></g></g></g></g><g
       id="g644"><g
         id="g646"><g
           id="g652"><g
             id="g654"><path
               id="path678"
               style="fill:url(#linearGradient676);stroke:none"
               d="m 303.088,254.788 v 0.021 c 0,0 -0.082,-0.006 -0.8,-0.017 v 0 c -0.72,0.002 -0.801,0.008 -0.801,0.008 v 0 -0.021 c -11.733,-0.135 -66.55,-0.225 -105.769,9.203 v 0 l 0.202,-27.239 c 0,0 2.813,-14.061 105.748,-13.673 v 0 -0.005 c 0,0 0.431,0.005 0.8,0.007 v 0 c 0.369,0.002 0.8,0.002 0.8,0.002 v 0 0.004 c 102.933,0.788 105.575,14.88 105.575,14.88 v 0 l -0.242,27.239 c -39.111,-9.875 -93.78,-10.41 -105.513,-10.409" /></g></g></g></g><g
       id="g680"><g
         id="g682"><g
           id="g688"><g
             id="g690"><path
               id="path706"
               style="fill:url(#linearGradient704);stroke:none"
               d="m 303.088,254.788 v 0.021 c 0,0 -0.082,-0.006 -0.8,-0.017 v 0 c -0.72,0.002 -0.801,0.008 -0.801,0.008 v 0 -0.021 c -11.733,-0.135 -66.55,-0.225 -105.769,9.203 v 0 l 0.016,-27.24 c 0,0 0.047,-0.003 0.049,-0.011 v 0 l -0.056,25.664 c 39.219,-9.428 94.036,-9.338 105.769,-9.202 v 0 0.02 c 0,0 0.081,-0.005 0.8,-0.008 v 0 c 0.719,0.011 0.801,0.017 0.801,0.017 v 0 -0.021 c 11.732,0 66.454,0.535 105.563,10.407 v 0 l -0.017,1.589 c -39.109,-9.874 -93.822,-10.41 -105.555,-10.409 m 105.572,8.82 0.05,-4.756 -0.043,4.758 c -0.003,-0.001 -0.005,-0.001 -0.007,-0.002 m 0.239,-25.657 c 10e-4,0.004 0.029,0.008 0.029,0.008 v 0 l -0.218,20.893 z" /></g></g></g></g><g
       id="g708"><g
         id="g710"><g
           id="g716"><g
             id="g718"><path
               id="path734"
               style="fill:url(#linearGradient732);stroke:none"
               d="m 303.259,224.665 v -0.004 c 0,0 -0.431,0 -0.8,-0.002 v 0 c -0.369,-0.003 -0.8,-0.007 -0.8,-0.007 v 0 0.004 c -101.334,-0.381 -105.722,13.23 -105.839,13.662 v 0 l 0.1,-1.575 c 0,0 2.813,-14.061 105.748,-13.673 v 0 -0.005 c 0,0 0.431,0.005 0.8,0.007 v 0 c 0.369,0.002 0.8,0.002 0.8,0.002 v 0 0.004 c 102.933,0.788 105.575,14.88 105.575,14.88 v 0 l -0.067,1.58 c -0.073,-0.31 -3.651,-14.093 -105.517,-14.873" /></g></g></g></g><g
       id="g736"><g
         clip-path="url(#clipPath742)"
         id="g738"><g
           transform="translate(225.7117,248.2692)"
           id="g744"><path
             id="path746"
             style="fill:#5a3114;fill-opacity:1;fill-rule:nonzero;stroke:none"
             d="m 0,0 c -2.787,0.263 -4.18,0.401 -6.966,0.69 -0.184,-1.772 -0.276,-2.658 -0.46,-4.43 2.342,-0.243 3.514,-0.36 5.858,-0.585 0.543,-0.052 0.937,-0.211 1.182,-0.476 0.245,-0.266 0.349,-0.599 0.312,-1.002 -0.038,-0.401 -0.204,-0.708 -0.499,-0.919 -0.294,-0.211 -0.711,-0.291 -1.248,-0.239 -2.352,0.225 -3.528,0.343 -5.879,0.587 -0.237,-2.282 -0.356,-3.423 -0.593,-5.706 -0.075,-0.724 -0.299,-1.244 -0.672,-1.56 -0.372,-0.315 -0.822,-0.445 -1.348,-0.389 -0.534,0.057 -0.951,0.281 -1.248,0.672 -0.298,0.39 -0.407,0.943 -0.329,1.66 0.58,5.327 0.87,7.991 1.45,13.318 0.055,0.504 0.175,0.907 0.36,1.209 0.185,0.302 0.445,0.51 0.781,0.621 0.336,0.111 0.753,0.14 1.25,0.087 3.32,-0.351 4.981,-0.517 8.304,-0.83 C 0.817,2.655 1.223,2.492 1.473,2.218 1.723,1.944 1.83,1.607 1.793,1.204 1.756,0.795 1.588,0.478 1.291,0.255 0.995,0.031 0.564,-0.053 0,0" /></g><g
           transform="translate(237.1192,238.7905)"
           id="g748"><path
             id="path750"
             style="fill:#5a3114;fill-opacity:1;fill-rule:nonzero;stroke:none"
             d="m 0,0 c -0.496,-0.137 -1.212,-0.265 -2.149,-0.385 -0.937,-0.119 -1.586,-0.208 -1.948,-0.27 -0.362,-0.061 -0.715,-0.209 -1.059,-0.447 -0.345,-0.237 -0.537,-0.592 -0.577,-1.065 -0.042,-0.49 0.112,-0.921 0.463,-1.297 0.351,-0.375 0.834,-0.588 1.449,-0.639 0.654,-0.054 1.27,0.037 1.847,0.273 0.576,0.236 1.009,0.571 1.303,0.987 0.33,0.465 0.548,1.26 0.635,2.38 C -0.022,-0.278 -0.014,-0.185 0,0 m -0.144,-4.694 c -0.848,-0.547 -1.66,-0.941 -2.435,-1.185 -0.774,-0.243 -1.628,-0.326 -2.561,-0.248 -0.851,0.072 -1.585,0.299 -2.201,0.683 -0.615,0.383 -1.072,0.87 -1.37,1.462 -0.298,0.59 -0.417,1.213 -0.359,1.868 0.08,0.883 0.433,1.61 1.059,2.183 0.627,0.572 1.446,0.922 2.46,1.05 0.213,0.029 0.74,0.092 1.581,0.188 0.84,0.097 1.561,0.192 2.162,0.282 0.601,0.091 1.254,0.208 1.959,0.352 0.026,0.856 -0.1,1.495 -0.377,1.918 -0.276,0.423 -0.898,0.672 -1.865,0.75 C -2.922,4.677 -3.556,4.614 -3.996,4.42 -4.434,4.226 -4.823,3.913 -5.162,3.481 -5.501,3.05 -5.74,2.766 -5.876,2.631 -6.013,2.496 -6.285,2.445 -6.694,2.481 -7.063,2.513 -7.372,2.657 -7.62,2.913 -7.867,3.17 -7.975,3.48 -7.943,3.843 c 0.05,0.567 0.304,1.101 0.758,1.601 0.455,0.501 1.127,0.887 2.017,1.16 0.891,0.274 1.976,0.358 3.259,0.254 C -0.475,6.742 0.639,6.487 1.435,6.089 2.231,5.691 2.772,5.117 3.058,4.365 3.344,3.614 3.444,2.638 3.356,1.437 3.301,0.68 3.252,0.036 3.209,-0.493 3.166,-1.021 3.112,-1.613 3.061,-2.256 3.013,-2.86 3.073,-3.505 3.232,-4.18 3.39,-4.854 3.463,-5.286 3.449,-5.475 3.425,-5.807 3.243,-6.098 2.903,-6.346 2.562,-6.596 2.189,-6.705 1.784,-6.675 1.443,-6.65 1.118,-6.468 0.809,-6.132 0.5,-5.794 0.182,-5.315 -0.144,-4.694" /></g><g
           transform="translate(247.4423,236.2177)"
           id="g752"><path
             id="path754"
             style="fill:#5a3114;fill-opacity:1;fill-rule:nonzero;stroke:none"
             d="m 0,0 c -0.068,-1.081 -0.103,-1.622 -0.171,-2.703 -0.042,-0.656 -0.231,-1.138 -0.569,-1.445 -0.337,-0.308 -0.749,-0.446 -1.236,-0.414 -0.479,0.031 -0.862,0.223 -1.148,0.576 -0.286,0.352 -0.406,0.853 -0.362,1.501 0.244,3.602 0.366,5.403 0.611,9.005 0.098,1.453 0.678,2.144 1.738,2.074 0.542,-0.036 0.922,-0.23 1.139,-0.586 0.218,-0.355 0.318,-0.865 0.3,-1.53 0.434,0.639 0.866,1.115 1.299,1.43 0.431,0.314 0.99,0.45 1.676,0.409 C 3.963,8.277 4.619,8.068 5.246,7.691 5.873,7.314 6.172,6.846 6.141,6.285 6.119,5.889 5.963,5.571 5.672,5.329 5.381,5.089 5.075,4.977 4.755,4.995 4.635,5.002 4.349,5.092 3.897,5.265 3.445,5.438 3.043,5.535 2.691,5.557 2.21,5.585 1.811,5.486 1.491,5.255 1.171,5.025 0.911,4.671 0.713,4.191 0.513,3.711 0.36,3.136 0.253,2.464 0.146,1.793 0.062,0.972 0,0" /></g><g
           transform="translate(266.6703,236.9249)"
           id="g756"><path
             id="path758"
             style="fill:#5a3114;fill-opacity:1;fill-rule:nonzero;stroke:none"
             d="m 0,0 c -0.064,-1.723 -0.097,-2.584 -0.161,-4.307 -0.026,-0.682 -0.203,-1.186 -0.533,-1.514 -0.329,-0.328 -0.755,-0.482 -1.274,-0.461 -0.504,0.02 -0.906,0.206 -1.204,0.56 -0.298,0.352 -0.433,0.869 -0.404,1.55 0.086,2.065 0.13,3.097 0.217,5.162 0.034,0.814 0.032,1.449 -0.005,1.902 -0.037,0.453 -0.174,0.829 -0.41,1.129 C -4.01,4.32 -4.396,4.481 -4.932,4.505 -6.005,4.553 -6.729,4.222 -7.104,3.511 -7.479,2.799 -7.7,1.763 -7.765,0.403 c -0.084,-1.751 -0.126,-2.626 -0.21,-4.377 -0.032,-0.672 -0.213,-1.173 -0.542,-1.502 -0.329,-0.329 -0.75,-0.481 -1.261,-0.455 -0.504,0.025 -0.908,0.218 -1.21,0.579 -0.303,0.361 -0.436,0.878 -0.401,1.549 0.195,3.705 0.292,5.558 0.487,9.263 0.032,0.609 0.198,1.063 0.498,1.366 0.299,0.301 0.68,0.44 1.143,0.416 0.447,-0.022 0.813,-0.189 1.097,-0.5 0.285,-0.311 0.415,-0.728 0.39,-1.25 C -7.78,5.369 -7.783,5.307 -7.789,5.184 -7.188,5.828 -6.558,6.294 -5.897,6.581 -5.235,6.868 -4.51,6.994 -3.72,6.96 -2.899,6.925 -2.199,6.734 -1.621,6.386 -1.043,6.038 -0.574,5.529 -0.215,4.857 0.362,5.501 0.972,5.972 1.614,6.27 2.256,6.568 2.96,6.704 3.726,6.679 4.62,6.65 5.386,6.452 6.022,6.085 6.658,5.718 7.134,5.203 7.431,4.547 7.698,3.96 7.809,3.029 7.775,1.77 7.707,-0.761 7.673,-2.026 7.605,-4.557 7.586,-5.239 7.415,-5.745 7.089,-6.076 6.763,-6.408 6.339,-6.566 5.82,-6.551 5.317,-6.536 4.909,-6.352 4.599,-5.997 4.289,-5.643 4.145,-5.129 4.166,-4.457 4.235,-2.277 4.27,-1.188 4.338,0.992 4.36,1.688 4.347,2.247 4.3,2.669 4.254,3.089 4.102,3.447 3.847,3.74 3.592,4.034 3.196,4.189 2.659,4.208 2.227,4.222 1.812,4.11 1.415,3.871 1.017,3.631 0.684,3.297 0.469,2.883 0.201,2.367 0.052,1.385 0,0" /></g><g
           transform="translate(288.7673,233.1748)"
           id="g760"><path
             id="path762"
             style="fill:#5a3114;fill-opacity:1;fill-rule:nonzero;stroke:none"
             d="m 0,0 c 2.535,-0.019 3.802,-0.023 6.337,-0.02 0.631,0 1.114,-0.125 1.446,-0.377 C 8.116,-0.65 8.284,-0.993 8.285,-1.429 8.287,-1.816 8.156,-2.146 7.893,-2.416 7.63,-2.686 7.23,-2.822 6.694,-2.823 c -3.588,-0.005 -5.382,0.003 -8.97,0.041 -0.609,0.006 -1.082,0.176 -1.419,0.509 -0.338,0.332 -0.503,0.72 -0.497,1.164 0.004,0.285 0.119,0.661 0.343,1.13 0.225,0.468 0.468,0.835 0.729,1.102 1.087,1.08 2.064,2.006 2.932,2.78 0.867,0.774 1.485,1.283 1.856,1.526 0.66,0.456 1.211,0.915 1.649,1.377 0.438,0.462 0.772,0.936 1.001,1.422 0.228,0.487 0.343,0.964 0.344,1.432 0.001,0.505 -0.121,0.96 -0.363,1.359 -0.244,0.4 -0.573,0.712 -0.991,0.935 C 2.891,12.177 2.435,12.289 1.943,12.292 0.9,12.297 0.077,11.848 -0.528,10.943 -0.61,10.825 -0.746,10.501 -0.938,9.973 -1.13,9.444 -1.346,9.038 -1.584,8.755 -1.824,8.472 -2.171,8.333 -2.627,8.338 c -0.401,0.005 -0.731,0.14 -0.992,0.404 -0.26,0.265 -0.388,0.623 -0.382,1.074 0.007,0.546 0.138,1.114 0.393,1.705 0.254,0.591 0.629,1.125 1.124,1.602 0.493,0.478 1.117,0.861 1.87,1.152 0.752,0.29 1.632,0.433 2.64,0.428 C 3.239,14.697 4.28,14.507 5.131,14.124 5.685,13.875 6.176,13.522 6.598,13.08 7.019,12.637 7.349,12.125 7.586,11.544 7.822,10.962 7.943,10.359 7.945,9.734 7.948,8.752 7.705,7.858 7.214,7.053 6.722,6.249 6.219,5.619 5.705,5.164 5.191,4.708 4.328,3.994 3.112,3.023 1.896,2.054 1.057,1.303 0.6,0.768 0.404,0.556 0.204,0.299 0,0" /></g><g
           transform="translate(317.5989,245.4136)"
           id="g764"><path
             id="path766"
             style="fill:#5a3114;fill-opacity:1;fill-rule:nonzero;stroke:none"
             d="m 0,0 c -2.794,-0.089 -4.191,-0.127 -6.986,-0.189 0.04,-1.781 0.06,-2.672 0.1,-4.453 2.35,0.052 3.525,0.083 5.875,0.154 0.544,0.017 0.954,-0.091 1.231,-0.324 0.276,-0.232 0.421,-0.55 0.434,-0.954 0.013,-0.403 -0.113,-0.729 -0.379,-0.975 -0.266,-0.246 -0.667,-0.378 -1.206,-0.394 -2.358,-0.071 -3.537,-0.102 -5.896,-0.155 0.051,-2.294 0.077,-3.441 0.128,-5.735 0.016,-0.728 -0.141,-1.272 -0.47,-1.632 -0.329,-0.359 -0.758,-0.544 -1.286,-0.555 -0.537,-0.01 -0.977,0.159 -1.321,0.509 -0.344,0.351 -0.521,0.886 -0.533,1.606 -0.094,5.358 -0.141,8.037 -0.234,13.395 -0.009,0.507 0.059,0.922 0.205,1.245 0.145,0.323 0.377,0.561 0.696,0.714 0.319,0.152 0.727,0.233 1.227,0.244 3.332,0.068 4.998,0.111 8.328,0.217 C 0.477,2.736 0.9,2.625 1.181,2.386 1.463,2.145 1.612,1.824 1.625,1.42 1.639,1.009 1.513,0.673 1.247,0.415 0.982,0.156 0.566,0.018 0,0" /></g><g
           transform="translate(330.0905,237.4407)"
           id="g768"><path
             id="path770"
             style="fill:#5a3114;fill-opacity:1;fill-rule:nonzero;stroke:none"
             d="M 0,0 C -0.474,-0.198 -1.168,-0.415 -2.081,-0.651 -2.994,-0.887 -3.627,-1.057 -3.978,-1.163 -4.328,-1.269 -4.66,-1.461 -4.971,-1.74 -5.283,-2.019 -5.43,-2.395 -5.41,-2.869 c 0.02,-0.491 0.227,-0.9 0.622,-1.229 0.394,-0.328 0.9,-0.479 1.515,-0.452 0.657,0.029 1.256,0.196 1.796,0.503 0.541,0.306 0.929,0.694 1.168,1.142 0.268,0.503 0.386,1.319 0.331,2.442 C 0.013,-0.278 0.009,-0.185 0,0 m 0.446,-4.675 c -0.773,-0.649 -1.528,-1.142 -2.264,-1.481 -0.737,-0.338 -1.573,-0.528 -2.507,-0.567 -0.853,-0.036 -1.608,0.098 -2.267,0.401 -0.658,0.303 -1.171,0.729 -1.541,1.278 -0.369,0.548 -0.565,1.152 -0.589,1.809 -0.032,0.886 0.227,1.652 0.776,2.299 0.548,0.646 1.317,1.096 2.305,1.35 0.207,0.055 0.722,0.184 1.542,0.385 0.821,0.202 1.524,0.386 2.107,0.551 0.584,0.166 1.217,0.364 1.898,0.595 C -0.175,2.798 -0.38,3.415 -0.708,3.8 -1.035,4.185 -1.682,4.354 -2.651,4.311 -3.482,4.273 -4.103,4.131 -4.514,3.884 -4.924,3.637 -5.27,3.277 -5.552,2.806 -5.833,2.335 -6.034,2.024 -6.153,1.873 -6.272,1.722 -6.535,1.638 -6.945,1.622 c -0.37,-0.015 -0.693,0.089 -0.97,0.312 -0.278,0.224 -0.424,0.518 -0.438,0.882 -0.021,0.569 0.163,1.131 0.55,1.684 0.388,0.554 1.005,1.021 1.854,1.404 0.848,0.383 1.913,0.602 3.197,0.66 C -1.316,6.629 -0.18,6.516 0.659,6.221 1.497,5.926 2.106,5.424 2.484,4.715 2.861,4.005 3.082,3.049 3.146,1.847 3.186,1.088 3.218,0.444 3.242,-0.086 3.266,-0.616 3.287,-1.209 3.317,-1.854 3.346,-2.459 3.486,-3.092 3.727,-3.741 3.969,-4.391 4.095,-4.81 4.105,-5 4.123,-5.332 3.979,-5.643 3.673,-5.932 3.367,-6.222 3.011,-6.378 2.605,-6.398 2.264,-6.416 1.919,-6.277 1.571,-5.982 1.223,-5.686 0.847,-5.25 0.446,-4.675" /></g><g
           transform="translate(349.2555,236.1056)"
           id="g772"><path
             id="path774"
             style="fill:#5a3114;fill-opacity:1;fill-rule:nonzero;stroke:none"
             d="m 0,0 c 0.03,-0.403 -0.061,-0.843 -0.274,-1.319 -0.213,-0.476 -0.557,-0.94 -1.032,-1.391 -0.477,-0.452 -1.09,-0.83 -1.844,-1.137 -0.752,-0.306 -1.611,-0.492 -2.576,-0.556 -2.052,-0.136 -3.693,0.349 -4.912,1.447 -1.219,1.097 -1.881,2.628 -1.993,4.589 -0.076,1.328 0.118,2.516 0.579,3.566 0.461,1.051 1.165,1.882 2.112,2.5 0.947,0.618 2.101,0.97 3.463,1.06 C -5.632,8.815 -4.849,8.746 -4.126,8.55 -3.404,8.354 -2.784,8.081 -2.265,7.73 -1.746,7.377 -1.341,6.993 -1.049,6.573 -0.757,6.154 -0.596,5.755 -0.568,5.376 -0.539,4.989 -0.662,4.65 -0.934,4.361 -1.207,4.071 -1.553,3.91 -1.97,3.88 -2.242,3.861 -2.474,3.914 -2.665,4.039 -2.855,4.165 -3.073,4.374 -3.319,4.666 -3.762,5.238 -4.211,5.659 -4.668,5.929 -5.125,6.199 -5.688,6.313 -6.359,6.268 -7.327,6.204 -8.082,5.78 -8.628,4.996 -9.174,4.212 -9.408,3.173 -9.328,1.877 -9.29,1.268 -9.179,0.714 -8.995,0.214 c 0.185,-0.5 0.435,-0.921 0.748,-1.263 0.313,-0.341 0.682,-0.591 1.106,-0.75 0.425,-0.16 0.884,-0.223 1.376,-0.19 0.664,0.044 1.222,0.233 1.674,0.565 0.452,0.333 0.838,0.82 1.158,1.462 0.175,0.377 0.373,0.677 0.592,0.899 0.219,0.221 0.498,0.345 0.835,0.37 C -1.103,1.336 -0.758,1.21 -0.471,0.93 -0.182,0.648 -0.025,0.339 0,0" /></g><g
           transform="translate(352.2081,245.2411)"
           id="g776"><path
             id="path778"
             style="fill:#5a3114;fill-opacity:1;fill-rule:nonzero;stroke:none"
             d="M 0,0 C 0.143,0.011 0.215,0.017 0.359,0.029 0.297,0.805 0.266,1.194 0.204,1.971 0.162,2.491 0.144,2.9 0.148,3.199 0.152,3.497 0.212,3.759 0.319,3.981 0.428,4.209 0.596,4.406 0.822,4.563 1.048,4.721 1.308,4.812 1.6,4.836 2.011,4.869 2.397,4.746 2.754,4.467 2.993,4.28 3.155,4.041 3.24,3.75 3.324,3.459 3.389,3.042 3.435,2.497 3.509,1.616 3.546,1.176 3.62,0.296 4.098,0.336 4.336,0.356 4.814,0.397 5.276,0.437 5.638,0.36 5.9,0.164 6.162,-0.032 6.307,-0.299 6.337,-0.639 6.375,-1.073 6.228,-1.392 5.896,-1.595 5.564,-1.798 5.074,-1.929 4.427,-1.984 4.183,-2.005 4.061,-2.015 3.816,-2.036 c 0.2,-2.376 0.3,-3.564 0.5,-5.941 0.043,-0.505 0.094,-0.892 0.153,-1.16 0.059,-0.269 0.175,-0.482 0.347,-0.639 0.172,-0.156 0.435,-0.219 0.79,-0.189 0.195,0.017 0.454,0.073 0.778,0.168 0.326,0.096 0.581,0.153 0.767,0.169 0.266,0.024 0.515,-0.06 0.748,-0.25 0.233,-0.189 0.363,-0.438 0.391,-0.746 0.046,-0.52 -0.21,-0.945 -0.768,-1.272 -0.559,-0.328 -1.386,-0.539 -2.479,-0.632 -1.038,-0.087 -1.838,0.017 -2.401,0.314 -0.562,0.295 -0.95,0.737 -1.163,1.323 -0.214,0.587 -0.36,1.381 -0.44,2.384 -0.198,2.481 -0.297,3.722 -0.494,6.203 -0.173,-0.014 -0.26,-0.021 -0.432,-0.034 -0.471,-0.038 -0.84,0.045 -1.104,0.247 -0.266,0.202 -0.41,0.473 -0.437,0.812 -0.026,0.34 0.082,0.628 0.324,0.865 C -0.862,-0.177 -0.494,-0.039 0,0" /></g><g
           transform="translate(370.8533,240.6179)"
           id="g780"><path
             id="path782"
             style="fill:#5a3114;fill-opacity:1;fill-rule:nonzero;stroke:none"
             d="M 0,0 C -0.137,1.314 -0.537,2.308 -1.199,2.98 -1.862,3.652 -2.686,3.938 -3.675,3.84 -4.314,3.776 -4.86,3.557 -5.315,3.183 -5.771,2.808 -6.1,2.29 -6.302,1.626 -6.505,0.962 -6.567,0.204 -6.486,-0.646 c 0.08,-0.844 0.281,-1.569 0.603,-2.174 0.322,-0.605 0.744,-1.052 1.264,-1.339 0.52,-0.287 1.112,-0.399 1.773,-0.333 1,0.1 1.76,0.549 2.277,1.346 C -0.053,-2.348 0.135,-1.3 0,0 M 3.296,0.351 C 3.401,-0.611 3.344,-1.513 3.126,-2.356 2.907,-3.2 2.54,-3.944 2.02,-4.588 1.501,-5.233 0.853,-5.753 0.076,-6.148 c -0.777,-0.394 -1.671,-0.643 -2.683,-0.743 -1.004,-0.1 -1.922,-0.031 -2.753,0.207 -0.832,0.239 -1.567,0.625 -2.208,1.158 -0.64,0.533 -1.148,1.186 -1.523,1.958 -0.375,0.773 -0.606,1.645 -0.694,2.615 -0.089,0.978 -0.017,1.886 0.213,2.726 0.229,0.84 0.601,1.574 1.114,2.203 0.513,0.627 1.156,1.135 1.93,1.524 0.774,0.388 1.644,0.63 2.615,0.726 0.986,0.099 1.896,0.032 2.732,-0.2 C -0.345,5.794 0.39,5.417 1.025,4.896 1.661,4.374 2.172,3.729 2.559,2.958 2.945,2.188 3.191,1.318 3.296,0.351" /></g><g
           transform="translate(380.8052,239.7964)"
           id="g784"><path
             id="path786"
             style="fill:#5a3114;fill-opacity:1;fill-rule:nonzero;stroke:none"
             d="m 0,0 c 0.126,-1.076 0.19,-1.614 0.316,-2.69 0.077,-0.652 -0.024,-1.161 -0.301,-1.523 -0.276,-0.364 -0.657,-0.573 -1.143,-0.629 -0.477,-0.055 -0.887,0.066 -1.232,0.361 -0.344,0.295 -0.554,0.766 -0.626,1.411 -0.406,3.587 -0.608,5.381 -1.013,8.968 -0.164,1.448 0.283,2.231 1.339,2.353 0.54,0.062 0.948,-0.061 1.227,-0.372 0.278,-0.311 0.467,-0.794 0.569,-1.452 0.312,0.707 0.653,1.252 1.021,1.639 C 0.526,8.454 1.051,8.687 1.734,8.77 2.417,8.853 3.1,8.766 3.784,8.507 4.47,8.249 4.847,7.842 4.917,7.284 4.967,6.891 4.871,6.55 4.628,6.26 4.384,5.971 4.103,5.806 3.785,5.767 3.665,5.752 3.367,5.789 2.891,5.878 2.415,5.968 2.002,5.991 1.652,5.949 1.174,5.891 0.798,5.721 0.525,5.437 0.251,5.154 0.06,4.758 -0.051,4.251 -0.161,3.743 -0.208,3.15 -0.193,2.47 -0.178,1.79 -0.114,0.967 0,0" /></g><g
           transform="translate(392.6353,236.1536)"
           id="g788"><path
             id="path790"
             style="fill:#5a3114;fill-opacity:1;fill-rule:nonzero;stroke:none"
             d="m 0,0 c 0.083,0.303 0.124,0.455 0.207,0.759 -2.157,3.767 -3.225,5.654 -5.339,9.436 -0.32,0.542 -0.496,0.942 -0.529,1.201 -0.035,0.276 0.004,0.539 0.117,0.793 0.113,0.255 0.286,0.468 0.517,0.641 0.233,0.174 0.483,0.278 0.753,0.313 0.467,0.06 0.839,-0.041 1.116,-0.304 0.276,-0.263 0.542,-0.658 0.797,-1.183 1.519,-3.02 2.284,-4.528 3.826,-7.541 0.656,3.086 0.978,4.628 1.613,7.714 0.124,0.625 0.245,1.118 0.364,1.478 0.119,0.361 0.263,0.613 0.433,0.757 0.17,0.143 0.425,0.24 0.766,0.288 0.245,0.035 0.49,0.003 0.734,-0.094 C 5.619,14.162 5.819,14.012 5.973,13.81 6.127,13.608 6.249,13.362 6.257,13.144 6.262,13.006 6.226,12.771 6.194,12.486 6.162,12.201 6.115,11.911 6.051,11.614 4.981,6.988 4.433,4.676 3.311,0.052 3.072,-0.963 2.811,-1.77 2.529,-2.368 2.247,-2.965 1.832,-3.451 1.283,-3.824 0.734,-4.197 -0.041,-4.45 -1.04,-4.58 c -0.975,-0.128 -1.719,-0.12 -2.232,0.022 -0.514,0.143 -0.805,0.485 -0.874,1.026 -0.046,0.37 0.034,0.669 0.239,0.899 0.205,0.23 0.534,0.373 0.987,0.431 0.179,0.023 0.36,0.017 0.532,-0.003 0.211,-0.025 0.403,-0.02 0.556,0 0.381,0.05 0.673,0.144 0.878,0.282 0.204,0.139 0.374,0.355 0.512,0.649 C -0.303,-0.98 -0.156,-0.556 0,0" /></g></g></g></g></svg>